<svg width="25" height="25" viewBox="0 0 25 25" fill="none" xmlns="http://www.w3.org/2000/svg">
<path d="M17.8674 15.7233H16.7381L16.3379 15.3373C17.7871 13.6564 18.5836 11.5104 18.582 9.29103C18.582 7.45343 18.0371 5.65711 17.0162 4.12921C15.9953 2.60131 14.5443 1.41046 12.8465 0.707241C11.1488 0.00402566 9.28072 -0.179968 7.47844 0.178529C5.67616 0.537025 4.02065 1.42191 2.72128 2.72128C1.42191 4.02065 0.537025 5.67616 0.178529 7.47844C-0.179968 9.28072 0.00402566 11.1488 0.707241 12.8465C1.41046 14.5443 2.60131 15.9953 4.12921 17.0162C5.65711 18.0371 7.45343 18.582 9.29103 18.582C11.5923 18.582 13.7078 17.7387 15.3373 16.3379L15.7233 16.7381V17.8674L22.8702 25L25 22.8702L17.8674 15.7233ZM9.29103 15.7233C5.73185 15.7233 2.85878 12.8502 2.85878 9.29103C2.85878 5.73185 5.73185 2.85878 9.29103 2.85878C12.8502 2.85878 15.7233 5.73185 15.7233 9.29103C15.7233 12.8502 12.8502 15.7233 9.29103 15.7233Z" fill="#6A6A6A"/>
</svg>
