<svg width="20" height="21" viewBox="0 0 20 21" fill="none" xmlns="http://www.w3.org/2000/svg">
<g clip-path="url(#clip0_46_258)">
<path d="M5.9375 0.466797C6.18614 0.466797 6.4246 0.565569 6.60041 0.741384C6.77623 0.9172 6.875 1.15566 6.875 1.4043V2.9668H13.125V1.4043C13.125 1.15566 13.2238 0.9172 13.3996 0.741384C13.5754 0.565569 13.8139 0.466797 14.0625 0.466797C14.3111 0.466797 14.5496 0.565569 14.7254 0.741384C14.9012 0.9172 15 1.15566 15 1.4043V2.9668H16.5625C17.77 2.9668 18.75 3.9468 18.75 5.1543V18.2793C18.75 18.8595 18.5195 19.4159 18.1093 19.8261C17.6991 20.2363 17.1427 20.4668 16.5625 20.4668H3.4375C2.85734 20.4668 2.30094 20.2363 1.8907 19.8261C1.48047 19.4159 1.25 18.8595 1.25 18.2793V5.1543C1.25 3.9468 2.23 2.9668 3.4375 2.9668H5V1.4043C5 1.15566 5.09877 0.9172 5.27459 0.741384C5.4504 0.565569 5.68886 0.466797 5.9375 0.466797ZM3.125 9.8418V18.2793C3.125 18.4518 3.265 18.5918 3.4375 18.5918H16.5625C16.6454 18.5918 16.7249 18.5589 16.7835 18.5003C16.8421 18.4417 16.875 18.3622 16.875 18.2793V9.8418H3.125ZM16.5625 4.8418H3.4375C3.35462 4.8418 3.27513 4.87472 3.21653 4.93333C3.15792 4.99193 3.125 5.07142 3.125 5.1543V7.9668H16.875V5.1543C16.875 5.07142 16.8421 4.99193 16.7835 4.93333C16.7249 4.87472 16.6454 4.8418 16.5625 4.8418Z" fill="#6A6A6A"/>
</g>
<defs>
<clipPath id="clip0_46_258">
<rect width="20" height="20" fill="white" transform="translate(0 0.466797)"/>
</clipPath>
</defs>
</svg>
