<svg width="25" height="25" viewBox="0 0 25 25" fill="none" xmlns="http://www.w3.org/2000/svg">
<path d="M22.5 22.4578V8.6435L12.5 2.54222L2.5 8.6435V22.4578H7.5V18.9623C7.5 17.6138 8.02678 16.3206 8.96447 15.3671C9.90215 14.4136 11.1739 13.8779 12.5 13.8779C13.8261 13.8779 15.0979 14.4136 16.0355 15.3671C16.9732 16.3206 17.5 17.6138 17.5 18.9623V22.4578H22.5ZM15 25V18.9623C15 18.288 14.7366 17.6414 14.2678 17.1647C13.7989 16.6879 13.163 16.4201 12.5 16.4201C11.837 16.4201 11.2011 16.6879 10.7322 17.1647C10.2634 17.6414 10 18.288 10 18.9623V25H2.5C1.83696 25 1.20107 24.7322 0.732233 24.2554C0.263392 23.7787 1.15737e-10 23.132 1.15736e-10 22.4578V8.6435C-4.15343e-06 8.2045 0.111788 7.77297 0.324491 7.39095C0.537194 7.00893 0.843558 6.68943 1.21375 6.46356L11.2137 0.362288C11.6023 0.125225 12.0469 0 12.5 0C12.9531 0 13.3977 0.125225 13.7863 0.362288L23.7862 6.46356C24.1564 6.68943 24.4628 7.00893 24.6755 7.39095C24.8882 7.77297 25 8.2045 25 8.6435V22.4578C25 23.132 24.7366 23.7787 24.2678 24.2554C23.7989 24.7322 23.163 25 22.5 25H15Z" fill="#FA321A"/>
</svg>
