<svg width="25" height="25" viewBox="0 0 25 25" fill="none" xmlns="http://www.w3.org/2000/svg">
<path d="M24.8357 22.7999C23.2488 19.9128 20.7708 17.6632 17.8007 16.4133C19.2777 15.265 20.3687 13.6641 20.9192 11.8373C21.4697 10.0106 21.4518 8.05056 20.8679 6.23496C20.2841 4.41935 19.1639 2.84019 17.6662 1.72116C16.1684 0.602135 14.3689 -2.76798e-05 12.5226 -2.76798e-05C10.6764 -2.76798e-05 8.8769 0.602135 7.37913 1.72116C5.88135 2.84019 4.76121 4.41935 4.17736 6.23496C3.59352 8.05056 3.57558 10.0106 4.12608 11.8373C4.67657 13.6641 5.76761 15.265 7.24463 16.4133C4.27449 17.6632 1.79651 19.9128 0.209579 22.7999C0.111247 22.9637 0.0457088 23.1465 0.0168614 23.3371C-0.011986 23.5278 -0.00355433 23.7226 0.0416554 23.9098C0.0868652 24.097 0.16793 24.2729 0.28003 24.427C0.392131 24.5811 0.532979 24.7103 0.694201 24.8069C0.855422 24.9034 1.03373 24.9654 1.21851 24.9891C1.4033 25.0128 1.5908 24.9977 1.76986 24.9448C1.94892 24.8919 2.11589 24.8022 2.26084 24.681C2.40579 24.5599 2.52576 24.4098 2.61362 24.2396C4.71094 20.4818 8.41482 18.2406 12.5226 18.2406C16.6305 18.2406 20.3344 20.483 22.4317 24.2396C22.6221 24.557 22.9241 24.7852 23.2739 24.8759C23.6237 24.9667 23.9938 24.9129 24.306 24.7259C24.6182 24.5389 24.848 24.2334 24.9469 23.874C25.0457 23.5146 25.0059 23.1294 24.8357 22.7999ZM6.50385 9.12208C6.50385 7.88813 6.85685 6.68189 7.5182 5.65589C8.17955 4.6299 9.11956 3.83023 10.2194 3.35802C11.3191 2.8858 12.5293 2.76225 13.6969 3.00298C14.8644 3.24371 15.9368 3.83792 16.7786 4.71046C17.6203 5.58299 18.1936 6.69467 18.4258 7.90492C18.658 9.11516 18.5388 10.3696 18.0833 11.5096C17.6277 12.6497 16.8563 13.6241 15.8665 14.3096C14.8767 14.9952 13.7131 15.3611 12.5226 15.3611C10.9269 15.3592 9.39709 14.7012 8.26875 13.5316C7.1404 12.362 6.50569 10.7762 6.50385 9.12208Z" fill="#6A6A6A"/>
</svg>
