<svg width="15" height="28" viewBox="0 0 15 28" fill="none" xmlns="http://www.w3.org/2000/svg">
<path d="M0.876226 25.2235C0.756047 25.3524 0.662095 25.5039 0.599732 25.6695C0.53737 25.8351 0.507818 26.0115 0.512766 26.1886C0.517714 26.3658 0.557064 26.5402 0.628569 26.702C0.700074 26.8637 0.802334 27.0096 0.92951 27.1313C1.05669 27.2531 1.20629 27.3482 1.36977 27.4114C1.53326 27.4745 1.70743 27.5045 1.88233 27.4995C2.05724 27.4944 2.22946 27.4546 2.38916 27.3822C2.54886 27.3097 2.69291 27.2062 2.81309 27.0774L14.1359 14.9345C14.3697 14.684 14.5 14.3523 14.5 14.0076C14.5 13.6628 14.3697 13.3312 14.1359 13.0807L2.81309 0.936455C2.6937 0.804823 2.54968 0.69853 2.3894 0.623751C2.22911 0.548971 2.05575 0.507196 1.87939 0.500851C1.70303 0.494503 1.52718 0.523714 1.36206 0.586784C1.19694 0.649853 1.04583 0.745523 0.917525 0.86824C0.789217 0.990957 0.686262 1.13827 0.61464 1.30163C0.543018 1.46499 0.504158 1.64113 0.500316 1.81983C0.496473 1.99853 0.527725 2.17622 0.592257 2.34258C0.656789 2.50894 0.753315 2.66066 0.876226 2.78892L11.3358 14.0076L0.876226 25.2235Z" fill="#FA321A"/>
</svg>
