<svg width="35" height="35" viewBox="0 0 35 35" fill="none" xmlns="http://www.w3.org/2000/svg">
<path d="M8.79648 26.8064L7.50449 28.9939C7.43142 29.1176 7.3347 29.2257 7.21985 29.3121C7.10499 29.3984 6.97427 29.4612 6.83512 29.497C6.55411 29.5693 6.25589 29.5271 6.00605 29.3795C5.75622 29.2319 5.57525 28.9911 5.50294 28.7101C5.43064 28.4291 5.47293 28.1309 5.62051 27.881L6.91387 25.6935C6.98519 25.5665 7.08117 25.455 7.19617 25.3656C7.31118 25.2761 7.44289 25.2106 7.58359 25.1727C7.72428 25.1349 7.87111 25.1256 8.01546 25.1453C8.15981 25.165 8.29877 25.2133 8.42418 25.2874C8.54959 25.3616 8.65893 25.46 8.74578 25.577C8.83262 25.694 8.89522 25.8271 8.9299 25.9686C8.96459 26.1101 8.97065 26.2571 8.94774 26.401C8.92483 26.5449 8.8734 26.6827 8.79648 26.8064ZM31.7188 20.7812H25.1836L20.9822 13.6719C20.9109 13.5448 20.8149 13.4333 20.6999 13.3439C20.5849 13.2545 20.4532 13.1889 20.3125 13.1511C20.1718 13.1132 20.025 13.1039 19.8806 13.1236C19.7363 13.1433 19.5973 13.1916 19.4719 13.2658C19.3465 13.3399 19.2372 13.4383 19.1503 13.5553C19.0635 13.6723 19.0009 13.8054 18.9662 13.9469C18.9315 14.0884 18.9254 14.2354 18.9484 14.3793C18.9713 14.5232 19.0227 14.661 19.0996 14.7848L27.4955 28.9939C27.6431 29.2438 27.8839 29.4247 28.1649 29.497C28.4459 29.5693 28.7441 29.5271 28.9939 29.3795C29.2438 29.2319 29.4248 28.9911 29.4971 28.7101C29.5694 28.4291 29.5271 28.1309 29.3795 27.881L26.477 22.9687H31.7188C32.0088 22.9687 32.287 22.8535 32.4921 22.6484C32.6973 22.4433 32.8125 22.1651 32.8125 21.875C32.8125 21.5849 32.6973 21.3067 32.4921 21.1016C32.287 20.8965 32.0088 20.7812 31.7188 20.7812ZM19.4783 20.7812H12.3566L21.7232 4.93143C21.8708 4.6816 21.9131 4.38338 21.8408 4.10237C21.7685 3.82136 21.5875 3.58058 21.3377 3.433C21.0879 3.28542 20.7896 3.24313 20.5086 3.31543C20.2276 3.38774 19.9868 3.56871 19.8393 3.81854L17.5 7.77792L15.1607 3.81308C15.0877 3.68937 14.9909 3.58127 14.8761 3.49495C14.7612 3.40862 14.6305 3.34577 14.4914 3.30997C14.2104 3.23766 13.9121 3.27995 13.6623 3.42753C13.4125 3.57511 13.2315 3.81589 13.1592 4.0969C13.0869 4.37791 13.1292 4.67613 13.2768 4.92597L16.2299 9.92304L9.81641 20.7812H3.28125C2.99117 20.7812 2.71297 20.8965 2.50785 21.1016C2.30273 21.3067 2.1875 21.5849 2.1875 21.875C2.1875 22.1651 2.30273 22.4433 2.50785 22.6484C2.71297 22.8535 2.99117 22.9687 3.28125 22.9687H19.4783C19.7684 22.9687 20.0466 22.8535 20.2517 22.6484C20.4568 22.4433 20.5721 22.1651 20.5721 21.875C20.5721 21.5849 20.4568 21.3067 20.2517 21.1016C20.0466 20.8965 19.7684 20.7812 19.4783 20.7812Z" fill="#FA321A"/>
</svg>
