<svg width="61" height="61" viewBox="0 0 61 61" fill="none" xmlns="http://www.w3.org/2000/svg">
<path d="M17.3026 0C17.8689 0 18.4119 0.224937 18.8123 0.625327C19.2127 1.02572 19.4377 1.56876 19.4377 2.135V6.12745H42.3645V2.16245C42.3645 1.59621 42.5894 1.05317 42.9898 0.652777C43.3902 0.252387 43.9333 0.02745 44.4995 0.02745C45.0657 0.02745 45.6088 0.252387 46.0092 0.652777C46.4096 1.05317 46.6345 1.59621 46.6345 2.16245V6.12745H54.9C56.5173 6.12745 58.0684 6.76971 59.2123 7.91302C60.3562 9.05633 60.9992 10.6071 61 12.2244V54.903C60.9992 56.5203 60.3562 58.0711 59.2123 59.2144C58.0684 60.3577 56.5173 61 54.9 61H6.1C4.48271 61 2.93161 60.3577 1.78773 59.2144C0.643842 58.0711 0.000808646 56.5203 0 54.903L0 12.2244C0.000808646 10.6071 0.643842 9.05633 1.78773 7.91302C2.93161 6.76971 4.48271 6.12745 6.1 6.12745H15.1677V2.13195C15.1685 1.56624 15.3938 1.02398 15.7941 0.624248C16.1944 0.224518 16.7369 -5.77253e-07 17.3026 0ZM4.27 23.6131V54.903C4.27 55.1434 4.31733 55.3813 4.4093 55.6034C4.50127 55.8254 4.63606 56.0271 4.80599 56.1971C4.97593 56.367 5.17766 56.5018 5.39969 56.5938C5.62172 56.6857 5.85968 56.733 6.1 56.733H54.9C55.1403 56.733 55.3783 56.6857 55.6003 56.5938C55.8223 56.5018 56.0241 56.367 56.194 56.1971C56.3639 56.0271 56.4987 55.8254 56.5907 55.6034C56.6827 55.3813 56.73 55.1434 56.73 54.903V23.6558L4.27 23.6131ZM20.3343 44.588V49.6693H15.25V44.588H20.3343ZM33.0406 44.588V49.6693H27.9593V44.588H33.0406ZM45.75 44.588V49.6693H40.6656V44.588H45.75ZM20.3343 32.4581V37.5394H15.25V32.4581H20.3343ZM33.0406 32.4581V37.5394H27.9593V32.4581H33.0406ZM45.75 32.4581V37.5394H40.6656V32.4581H45.75ZM15.1677 10.3944H6.1C5.85968 10.3944 5.62172 10.4417 5.39969 10.5337C5.17766 10.6257 4.97593 10.7605 4.80599 10.9304C4.63606 11.1003 4.50127 11.3021 4.4093 11.5241C4.31733 11.7461 4.27 11.9841 4.27 12.2244V19.3461L56.73 19.3888V12.2244C56.73 11.9841 56.6827 11.7461 56.5907 11.5241C56.4987 11.3021 56.3639 11.1003 56.194 10.9304C56.0241 10.7605 55.8223 10.6257 55.6003 10.5337C55.3783 10.4417 55.1403 10.3944 54.9 10.3944H46.6345V13.2278C46.6345 13.7941 46.4096 14.3371 46.0092 14.7375C45.6088 15.1379 45.0657 15.3629 44.4995 15.3629C43.9333 15.3629 43.3902 15.1379 42.9898 14.7375C42.5894 14.3371 42.3645 13.7941 42.3645 13.2278V10.3944H19.4377V13.2004C19.4377 13.7666 19.2127 14.3097 18.8123 14.7101C18.4119 15.1105 17.8689 15.3354 17.3026 15.3354C16.7364 15.3354 16.1934 15.1105 15.793 14.7101C15.3926 14.3097 15.1677 13.7666 15.1677 13.2004V10.3944Z" fill="white"/>
</svg>
