<svg width="35" height="35" viewBox="0 0 35 35" fill="none" xmlns="http://www.w3.org/2000/svg">
<path d="M28.4375 17.5C28.4375 17.2099 28.5527 16.9317 28.7579 16.7266C28.963 16.5215 29.2412 16.4062 29.5312 16.4062C29.8213 16.4062 30.0995 16.5215 30.3046 16.7266C30.5098 16.9317 30.625 17.2099 30.625 17.5V29.5312C30.625 29.8213 30.5098 30.0995 30.3046 30.3046C30.0995 30.5098 29.8213 30.625 29.5312 30.625H5.46875C5.17867 30.625 4.90047 30.5098 4.69535 30.3046C4.49023 30.0995 4.375 29.8213 4.375 29.5312V5.46875C4.375 5.17867 4.49023 4.90047 4.69535 4.69535C4.90047 4.49023 5.17867 4.375 5.46875 4.375H17.5C17.7901 4.375 18.0683 4.49023 18.2734 4.69535C18.4785 4.90047 18.5938 5.17867 18.5938 5.46875C18.5938 5.75883 18.4785 6.03703 18.2734 6.24215C18.0683 6.44727 17.7901 6.5625 17.5 6.5625H6.5625V28.4375H28.4375V17.5Z" fill="#6A6A6A"/>
<path d="M16.0628 18.9439L17.8675 18.6857L28.9537 7.60168C29.0582 7.50079 29.1415 7.3801 29.1988 7.24666C29.2562 7.11321 29.2863 6.96969 29.2876 6.82447C29.2888 6.67924 29.2612 6.53521 29.2062 6.4008C29.1512 6.26638 29.07 6.14426 28.9673 6.04156C28.8646 5.93887 28.7425 5.85765 28.608 5.80266C28.4736 5.74766 28.3296 5.71999 28.1844 5.72125C28.0391 5.72251 27.8956 5.75269 27.7622 5.81001C27.6287 5.86733 27.5081 5.95066 27.4072 6.05512L16.3187 17.1392L16.0606 18.9439H16.0628ZM30.5003 4.50637C30.8052 4.81109 31.0471 5.17291 31.2121 5.57114C31.3771 5.96938 31.4621 6.39623 31.4621 6.82731C31.4621 7.25838 31.3771 7.68524 31.2121 8.08347C31.0471 8.48171 30.8052 8.84353 30.5003 9.14825L19.1581 20.4904C18.9908 20.6583 18.7736 20.7673 18.539 20.8011L14.9297 21.3173C14.7614 21.3415 14.5899 21.3261 14.4287 21.2724C14.2674 21.2187 14.1209 21.1282 14.0008 21.0081C13.8806 20.8879 13.7901 20.7414 13.7364 20.5802C13.6827 20.4189 13.6674 20.2474 13.6915 20.0792L14.2078 16.4698C14.2409 16.2355 14.3491 16.0183 14.5162 15.8507L25.8606 4.50856C26.4759 3.89342 27.3104 3.54785 28.1804 3.54785C29.0505 3.54785 29.885 3.89342 30.5003 4.50856V4.50637Z" fill="#6A6A6A"/>
</svg>
