<svg width="147" height="132" viewBox="0 0 147 132" fill="none" xmlns="http://www.w3.org/2000/svg">
<path d="M132 14.6667H14.6667V117.333L82.808 49.1773C83.4891 48.4955 84.2979 47.9546 85.1881 47.5856C86.0784 47.2165 87.0326 47.0266 87.9963 47.0266C88.9601 47.0266 89.9143 47.2165 90.8046 47.5856C91.6948 47.9546 92.5036 48.4955 93.1847 49.1773L132 88.0733V14.6667ZM0 7.282C0.0134203 5.35611 0.783935 3.51279 2.14509 2.15026C3.50625 0.787731 5.34879 0.0153608 7.27467 0H139.392C143.411 0 146.667 3.26333 146.667 7.282V124.718C146.653 126.644 145.883 128.487 144.522 129.85C143.16 131.212 141.318 131.985 139.392 132H7.27467C5.34463 131.998 3.49431 131.23 2.13026 129.865C0.766202 128.499 -9.78671e-07 126.648 0 124.718V7.282ZM44 58.6667C40.1102 58.6667 36.3796 57.1214 33.6291 54.3709C30.8786 51.6204 29.3333 47.8898 29.3333 44C29.3333 40.1102 30.8786 36.3796 33.6291 33.6291C36.3796 30.8786 40.1102 29.3333 44 29.3333C47.8898 29.3333 51.6204 30.8786 54.3709 33.6291C57.1214 36.3796 58.6667 40.1102 58.6667 44C58.6667 47.8898 57.1214 51.6204 54.3709 54.3709C51.6204 57.1214 47.8898 58.6667 44 58.6667Z" fill="#AFAFAF"/>
</svg>
