<svg width="100" height="100" viewBox="0 0 100 100" fill="none" xmlns="http://www.w3.org/2000/svg">
<path d="M65.5078 22.6497C62.5765 24.7453 60.9508 28.4413 59.8193 31.7593C59.3552 33.0981 60.3126 34.7864 61.7932 34.8157C64.2021 34.8742 66.611 34.9026 68.9907 34.9319C71.1388 34.9905 74.0117 35.427 75.9565 34.4085C77.1172 33.7972 77.1463 32.3129 76.1589 31.5269C74.36 30.1296 71.2546 30.2174 69.0773 30.1296C66.5526 30.0426 64.028 30.0719 61.5316 30.2751C62.4023 31.2652 63.273 32.2837 64.1146 33.2729C64.8987 30.0426 66.5235 27.1611 67.4817 23.9885C67.8875 22.7375 66.4943 21.9515 65.5078 22.6497Z" fill="#FA321A"/>
<path d="M9.06829 55.4396C11.7206 61.6795 17.0836 66.1069 22.8604 69.3161C29.2844 72.8821 36.3573 75.2588 43.6061 76.3286C57.663 78.3792 72.4864 74.6058 82.5653 64.2057C87.5451 59.0645 91.4648 52.3192 91.7888 45.0096C91.8776 43.1673 89.2845 42.5731 88.6356 44.3557C86.6906 49.6752 84.0382 54.667 80.1778 58.8571C76.3469 62.9865 71.7199 66.1368 66.5041 68.2463C54.1274 73.2679 39.4512 71.5742 27.4569 66.2853C21.1802 63.462 15.7283 59.2131 11.1605 54.0429C10.1588 52.9433 8.50821 54.1317 9.06829 55.4396Z" fill="#FA321A"/>
<path d="M28.919 26.0471C27.4234 29.8881 27.1909 34.9199 28.3259 38.9398C28.816 40.637 31.3688 40.9347 31.3429 38.731C31.3429 36.6172 31.1371 34.5033 31.0334 32.3886C30.9305 30.3047 30.9046 28.2499 30.6988 26.1959C30.5951 25.0642 29.2543 25.1831 28.919 26.0471Z" fill="#FA321A"/>
</svg>
