<svg width="31" height="33" viewBox="0 0 31 33" fill="none" xmlns="http://www.w3.org/2000/svg">
<path d="M22.6014 11.4715L4.89643 1.65039C4.37597 1.35348 3.81316 1.13868 3.22772 1.01353C2.75402 0.958762 2.27611 1.07135 1.87607 1.33196M22.6014 11.4715L17.7037 16.4994M22.6014 11.4715L28.4418 14.7145C30.5194 15.871 30.5194 17.0944 28.4418 18.2508L22.6014 21.4938L17.7037 16.4659L22.6014 11.438V11.4715ZM17.7037 16.4994L1.87607 1.33196M17.7037 16.4994L1.89276 31.6418M17.7037 16.4994L22.6014 21.5273L4.9298 31.3485C3.96195 31.8848 2.66036 32.3457 1.89276 31.6418M1.87607 1.33196L17.7288 16.4994L1.89276 31.6418M1.87607 1.33196L1.83435 1.34034C1.30037 1.80961 1 2.77329 1 4.17272V28.8262C1 30.2256 1.30871 31.1725 1.89276 31.6418" stroke="#FA321A" stroke-linecap="round" stroke-linejoin="round"/>
</svg>
