<svg width="50" height="50" viewBox="0 0 50 50" fill="none" xmlns="http://www.w3.org/2000/svg">
<path d="M13.8814 4.86863C14.0628 5.05 14.2067 5.26533 14.3049 5.50233C14.4031 5.73933 14.4536 5.99334 14.4536 6.24988C14.4536 6.50641 14.4031 6.76043 14.3049 6.99742C14.2067 7.23442 14.0628 7.44975 13.8814 7.63113L9.40325 12.1093H27.3439C36.6204 12.1093 44.1407 19.6296 44.1407 28.9061C44.1407 38.1827 36.6204 45.703 27.3439 45.703C18.0673 45.703 10.547 38.1827 10.547 28.9061C10.547 28.3881 10.7528 27.8913 11.1191 27.5251C11.4853 27.1588 11.9821 26.953 12.5001 26.953C13.0181 26.953 13.5149 27.1588 13.8812 27.5251C14.2475 27.8913 14.4532 28.3881 14.4532 28.9061C14.4532 31.4557 15.2093 33.9479 16.6257 36.0678C18.0421 38.1876 20.0554 39.8399 22.4108 40.8155C24.7663 41.7912 27.3582 42.0465 29.8587 41.5491C32.3592 41.0517 34.6561 39.824 36.4589 38.0212C38.2617 36.2184 39.4894 33.9215 39.9868 31.421C40.4842 28.9204 40.2289 26.3286 39.2533 23.9731C38.2776 21.6176 36.6254 19.6044 34.5055 18.188C32.3857 16.7715 29.8934 16.0155 27.3439 16.0155H9.40325L13.8814 20.4936C14.2477 20.86 14.4535 21.3568 14.4535 21.8749C14.4535 22.3929 14.2477 22.8898 13.8814 23.2561C13.515 23.6225 13.0182 23.8283 12.5001 23.8283C11.9821 23.8283 11.4852 23.6225 11.1189 23.2561L3.30637 15.4436C3.12495 15.2623 2.98104 15.0469 2.88285 14.8099C2.78467 14.5729 2.73413 14.3189 2.73413 14.0624C2.73413 13.8058 2.78467 13.5518 2.88285 13.3148C2.98104 13.0778 3.12495 12.8625 3.30637 12.6811L11.1189 4.86863C11.3002 4.68721 11.5156 4.54329 11.7526 4.44511C11.9896 4.34692 12.2436 4.29639 12.5001 4.29639C12.7567 4.29639 13.0107 4.34692 13.2477 4.44511C13.4847 4.54329 13.7 4.68721 13.8814 4.86863Z" fill="#F1F1F1"/>
</svg>
