<svg width="70" height="70" viewBox="0 0 70 70" fill="none" xmlns="http://www.w3.org/2000/svg">
<circle cx="35" cy="35" r="35" fill="#FA321A"/>
<path d="M35.6363 18.2424C37.7742 18.2424 39.8244 19.0917 41.3361 20.6033C42.8477 22.115 43.697 24.1652 43.697 26.303C43.697 28.4408 42.8477 30.4911 41.3361 32.0027C39.8244 33.5144 37.7742 34.3636 35.6363 34.3636C33.4985 34.3636 31.4483 33.5144 29.9366 32.0027C28.425 30.4911 27.5757 28.4408 27.5757 26.303C27.5757 24.1652 28.425 22.115 29.9366 20.6033C31.4483 19.0917 33.4985 18.2424 35.6363 18.2424ZM35.6363 38.3939C44.5433 38.3939 51.7576 42.0011 51.7576 46.4546V50.4849H19.5151V46.4546C19.5151 42.0011 26.7294 38.3939 35.6363 38.3939Z" fill="#F5F5F5"/>
</svg>
