<svg width="27" height="14" viewBox="0 0 27 14" fill="none" xmlns="http://www.w3.org/2000/svg">
<path d="M2.27645 0.376226C2.14764 0.256047 1.99612 0.162095 1.83053 0.0997324C1.66494 0.0373697 1.48854 0.00781822 1.31138 0.0127659C1.13423 0.0177135 0.959797 0.0570641 0.798046 0.128569C0.636295 0.200074 0.490393 0.302334 0.36867 0.42951C0.246947 0.556686 0.151787 0.706289 0.088623 0.869775C0.0254591 1.03326 -0.00447174 1.20743 0.000539686 1.38233C0.00555111 1.55724 0.0454065 1.72946 0.11783 1.88916C0.190254 2.04886 0.293828 2.19291 0.422638 2.31309L12.5655 13.6359C12.816 13.8697 13.1477 14 13.4924 14C13.8372 14 14.1688 13.8697 14.4193 13.6359L26.5635 2.31309C26.6952 2.1937 26.8015 2.04968 26.8762 1.8894C26.951 1.72911 26.9928 1.55575 26.9991 1.37939C27.0055 1.20303 26.9763 1.02718 26.9132 0.862059C26.8501 0.696937 26.7545 0.545833 26.6318 0.417525C26.509 0.289217 26.3617 0.186262 26.1984 0.11464C26.035 0.0430183 25.8589 0.00415802 25.6802 0.000315666C25.5015 -0.00352669 25.3238 0.0277252 25.1574 0.0922575C24.9911 0.156789 24.8393 0.253315 24.7111 0.376226L13.4924 10.8358L2.27645 0.376226Z" fill="#FA321A"/>
</svg>
