<svg width="89" height="82" viewBox="0 0 89 82" fill="none" xmlns="http://www.w3.org/2000/svg">
<path d="M31.15 82C28.48 82 26.7 80.36 26.7 77.9V65.6H8.9C4.005 65.6 0 61.91 0 57.4V8.2C0 3.69 4.005 0 8.9 0H80.1C84.995 0 89 3.69 89 8.2V57.4C89 61.91 84.995 65.6 80.1 65.6H52.955L36.49 80.77C35.6 81.59 34.71 82 33.375 82H31.15ZM35.6 57.4V70.11L49.395 57.4H80.1V8.2H8.9V57.4H35.6ZM63.635 16.4L57.405 28.7H66.75V45.1H48.95V27.88L54.735 16.4H63.635ZM36.935 16.4L30.705 28.7H40.05V45.1H22.25V27.88L28.035 16.4H36.935Z" fill="white"/>
</svg>
