<svg width="354" height="354" viewBox="0 0 354 354" fill="none" xmlns="http://www.w3.org/2000/svg">
<path d="M229.974 79.9277C219.385 87.3607 213.513 100.471 209.426 112.24C207.749 116.989 211.208 122.977 216.556 123.081C225.257 123.289 233.959 123.39 242.554 123.493C250.314 123.701 260.691 125.249 267.716 121.637C271.909 119.468 272.014 114.204 268.447 111.416C261.949 106.459 250.732 106.771 242.867 106.459C233.748 106.151 224.628 106.255 215.611 106.975C218.756 110.487 221.901 114.1 224.941 117.609C227.773 106.151 233.642 95.9297 237.104 84.6764C238.569 80.2392 233.537 77.451 229.974 79.9277Z" fill="black"/>
<path d="M32.3987 196.351C41.7483 218.091 60.6531 233.516 81.0165 244.697C103.661 257.121 128.593 265.401 154.146 269.128C203.697 276.273 255.95 263.126 291.479 226.892C309.033 208.98 322.85 185.48 323.992 160.013C324.305 153.594 315.165 151.524 312.877 157.735C306.021 176.268 296.671 193.659 283.063 208.258C269.559 222.645 253.248 233.62 234.862 240.97C191.234 258.465 139.5 252.564 97.2194 234.138C75.0936 224.301 55.8755 209.498 39.7739 191.485C36.2429 187.654 30.4244 191.794 32.3987 196.351Z" fill="black"/>
<path d="M103.255 92.3484C97.2429 105.731 96.3083 123.261 100.871 137.266C102.841 143.18 113.103 144.217 112.999 136.539C112.999 129.175 112.172 121.81 111.755 114.442C111.341 107.182 111.237 100.023 110.41 92.867C109.993 88.9238 104.603 89.3381 103.255 92.3484Z" fill="black"/>
</svg>
