<svg width="134" height="134" viewBox="0 0 134 134" fill="none" xmlns="http://www.w3.org/2000/svg">
<path d="M87.7805 30.3505C83.8526 33.1585 81.6742 38.1111 80.158 42.5574C79.5361 44.3513 80.819 46.6136 82.803 46.6529C86.0309 46.7313 89.2588 46.7694 92.4476 46.8086C95.326 46.887 99.1758 47.472 101.782 46.1072C103.337 45.2881 103.376 43.2992 102.053 42.2459C99.6425 40.3735 95.4812 40.4911 92.5637 40.3735C89.1806 40.257 85.7976 40.2962 82.4524 40.5684C83.6192 41.8952 84.786 43.2599 85.9137 44.5855C86.9643 40.257 89.1416 36.3956 90.4256 32.1444C90.9693 30.4681 89.1025 29.4148 87.7805 30.3505Z" fill="#FA321A"/>
<path d="M12.1515 74.2889C15.7057 82.6503 22.8921 88.5831 30.633 92.8834C39.2411 97.6618 48.7188 100.847 58.4322 102.28C77.2685 105.028 97.1319 99.9716 110.638 86.0354C117.31 79.1463 122.563 70.1076 122.997 60.3127C123.116 57.844 119.641 57.0478 118.772 59.4364C116.165 66.5647 112.611 73.2536 107.438 78.8683C102.305 84.4018 96.1047 88.6231 89.1155 91.4499C72.5308 98.1789 52.8646 95.9092 36.7923 88.8222C28.3815 85.039 21.076 79.3453 14.9552 72.4173C13.6129 70.9439 11.401 72.5363 12.1515 74.2889Z" fill="#FA321A"/>
<path d="M38.7516 34.9032C36.7476 40.0502 36.4361 46.7928 37.957 52.1794C38.6138 54.4537 42.0345 54.8526 41.9997 51.8997C41.9997 49.0671 41.724 46.2346 41.585 43.4009C41.4472 40.6084 41.4124 37.855 41.1366 35.1027C40.9977 33.5861 39.2011 33.7454 38.7516 34.9032Z" fill="#FA321A"/>
</svg>
