<svg width="55" height="55" viewBox="0 0 55 55" fill="none" xmlns="http://www.w3.org/2000/svg">
<circle cx="27.5" cy="27.5" r="27.5" fill="#FD6A48"/>
<path d="M27.9999 14.3335C29.6796 14.3335 31.2905 15.0008 32.4783 16.1885C33.666 17.3762 34.3333 18.9871 34.3333 20.6668C34.3333 22.3465 33.666 23.9574 32.4783 25.1452C31.2905 26.3329 29.6796 27.0002 27.9999 27.0002C26.3202 27.0002 24.7093 26.3329 23.5216 25.1452C22.3338 23.9574 21.6666 22.3465 21.6666 20.6668C21.6666 18.9871 22.3338 17.3762 23.5216 16.1885C24.7093 15.0008 26.3202 14.3335 27.9999 14.3335ZM27.9999 30.1668C34.9983 30.1668 40.6666 33.001 40.6666 36.5002V39.6668H15.3333V36.5002C15.3333 33.001 21.0016 30.1668 27.9999 30.1668Z" fill="white"/>
</svg>
