<svg width="657" height="419" viewBox="0 0 657 419" fill="none" xmlns="http://www.w3.org/2000/svg">
<path opacity="0.1" d="M404.661 418.488C543.56 418.488 656.161 406.756 656.161 392.283C656.161 377.811 543.56 366.078 404.661 366.078C265.761 366.078 153.161 377.811 153.161 392.283C153.161 406.756 265.761 418.488 404.661 418.488Z" fill="#171717"/>
<path d="M656.161 0H186.831V247.277H656.161V0Z" fill="#FA321A"/>
<path d="M649.354 8.98096H196.733V236.919H649.354V8.98096Z" fill="white"/>
<path d="M267.348 27.1094L265.902 221.9" stroke="#959FAF" stroke-width="0.9565" stroke-miterlimit="10" stroke-linecap="round"/>
<path d="M332.005 26.9312L330.556 221.72" stroke="#959FAF" stroke-width="0.9565" stroke-miterlimit="10" stroke-linecap="round"/>
<path d="M396.658 26.751L395.212 221.542" stroke="#959FAF" stroke-width="0.9565" stroke-miterlimit="10" stroke-linecap="round"/>
<path d="M461.315 26.5718L459.866 221.362" stroke="#959FAF" stroke-width="0.9565" stroke-miterlimit="10" stroke-linecap="round"/>
<path d="M525.969 26.394L524.522 221.183" stroke="#959FAF" stroke-width="0.9565" stroke-miterlimit="10" stroke-linecap="round"/>
<path d="M590.625 26.2129L589.178 221.003" stroke="#959FAF" stroke-width="0.9565" stroke-miterlimit="10" stroke-linecap="round"/>
<path d="M219.673 64.6296L637.737 61.5576" stroke="#959FAF" stroke-width="0.9565" stroke-miterlimit="10" stroke-linecap="round"/>
<path d="M228.277 30.4021H229.538L232.504 37.6464H232.607L235.572 30.4021H236.834V39.1294H235.845V32.4987H235.76L233.033 39.1294H232.078L229.351 32.4987H229.266V39.1294H228.277V30.4021ZM246.316 34.7658C246.316 35.6862 246.15 36.4817 245.818 37.1521C245.485 37.8226 245.03 38.3396 244.45 38.7033C243.87 39.0669 243.208 39.2487 242.464 39.2487C241.72 39.2487 241.058 39.0669 240.478 38.7033C239.899 38.3396 239.443 37.8226 239.11 37.1521C238.778 36.4817 238.612 35.6862 238.612 34.7658C238.612 33.8453 238.778 33.0498 239.11 32.3794C239.443 31.7089 239.899 31.1919 240.478 30.8283C241.058 30.4646 241.72 30.2828 242.464 30.2828C243.208 30.2828 243.87 30.4646 244.45 30.8283C245.03 31.1919 245.485 31.7089 245.818 32.3794C246.15 33.0498 246.316 33.8453 246.316 34.7658ZM245.294 34.7658C245.294 34.0101 245.167 33.3723 244.914 32.8524C244.664 32.3325 244.325 31.9391 243.896 31.672C243.47 31.405 242.993 31.2714 242.464 31.2714C241.936 31.2714 241.457 31.405 241.028 31.672C240.602 31.9391 240.262 32.3325 240.01 32.8524C239.76 33.3723 239.635 34.0101 239.635 34.7658C239.635 35.5214 239.76 36.1592 240.01 36.6791C240.262 37.199 240.602 37.5925 241.028 37.8595C241.457 38.1266 241.936 38.2601 242.464 38.2601C242.993 38.2601 243.47 38.1266 243.896 37.8595C244.325 37.5925 244.664 37.199 244.914 36.6791C245.167 36.1592 245.294 35.5214 245.294 34.7658Z" fill="#959FAF"/>
<path d="M290.635 31.3396V30.4021H297.181V31.3396H294.437V39.1294H293.38V31.3396H290.635ZM304.539 30.4021H305.596V36.1805C305.596 36.7771 305.455 37.3098 305.174 37.7785C304.896 38.2445 304.502 38.6123 303.994 38.8822C303.485 39.1493 302.889 39.2828 302.204 39.2828C301.519 39.2828 300.923 39.1493 300.414 38.8822C299.906 38.6123 299.511 38.2445 299.23 37.7785C298.951 37.3098 298.812 36.7771 298.812 36.1805V30.4021H299.869V36.0953C299.869 36.5214 299.963 36.9007 300.15 37.2331C300.338 37.5626 300.605 37.8226 300.951 38.0129C301.301 38.2004 301.718 38.2942 302.204 38.2942C302.69 38.2942 303.107 38.2004 303.457 38.0129C303.806 37.8226 304.073 37.5626 304.258 37.2331C304.445 36.9007 304.539 36.5214 304.539 36.0953V30.4021Z" fill="#959FAF"/>
<path d="M353.662 39.1294L351.276 30.4021H352.35L354.173 37.5101H354.259L356.117 30.4021H357.31L359.168 37.5101H359.253L361.077 30.4021H362.151L359.764 39.1294H358.673L356.747 32.1748H356.679L354.753 39.1294H353.662ZM363.467 39.1294V30.4021H368.735V31.3396H364.524V34.2885H368.462V35.226H364.524V38.1919H368.803V39.1294H363.467Z" fill="#959FAF"/>
<path d="M415.056 31.3396V30.4021H421.602V31.3396H418.857V39.1294H417.8V31.3396H415.056ZM423.233 39.1294V30.4021H424.289V34.2885H428.943V30.4021H430V39.1294H428.943V35.226H424.289V39.1294H423.233Z" fill="#959FAF"/>
<path d="M478.02 39.1294V30.4021H483.253V31.3396H479.077V34.2885H482.861V35.226H479.077V39.1294H478.02ZM485.063 39.1294V30.4021H488.012C488.694 30.4021 489.254 30.5186 489.691 30.7516C490.129 30.9817 490.452 31.2984 490.663 31.7018C490.873 32.1052 490.978 32.5641 490.978 33.0783C490.978 33.5925 490.873 34.0484 490.663 34.4462C490.452 34.8439 490.13 35.1564 489.695 35.3837C489.261 35.6081 488.705 35.7203 488.029 35.7203H485.643V34.7658H487.995C488.461 34.7658 488.836 34.6976 489.12 34.5612C489.407 34.4248 489.614 34.2317 489.742 33.9817C489.873 33.7288 489.938 33.4277 489.938 33.0783C489.938 32.7288 489.873 32.4234 489.742 32.1621C489.611 31.9007 489.403 31.699 489.116 31.557C488.829 31.4121 488.45 31.3396 487.978 31.3396H486.12V39.1294H485.063ZM489.171 35.2089L491.319 39.1294H490.092L487.978 35.2089H489.171Z" fill="#959FAF"/>
<path d="M543.396 32.5839C543.345 32.1521 543.137 31.8169 542.774 31.5783C542.41 31.3396 541.964 31.2203 541.435 31.2203C541.049 31.2203 540.711 31.2828 540.421 31.4078C540.134 31.5328 539.91 31.7047 539.748 31.9234C539.589 32.1422 539.509 32.3908 539.509 32.6692C539.509 32.9021 539.565 33.1024 539.676 33.27C539.789 33.4348 539.934 33.5726 540.11 33.6834C540.286 33.7913 540.471 33.8808 540.664 33.9518C540.857 34.02 541.035 34.0754 541.197 34.118L542.083 34.3567C542.31 34.4163 542.563 34.4987 542.842 34.6038C543.123 34.7089 543.391 34.8524 543.647 35.0342C543.906 35.2132 544.119 35.4433 544.286 35.7246C544.454 36.0058 544.538 36.351 544.538 36.7601C544.538 37.2317 544.414 37.6578 544.167 38.0385C543.923 38.4192 543.565 38.7217 543.093 38.9462C542.624 39.1706 542.055 39.2828 541.384 39.2828C540.759 39.2828 540.218 39.182 539.761 38.9802C539.306 38.7785 538.948 38.4973 538.687 38.1365C538.428 37.7757 538.282 37.3567 538.248 36.8794H539.339C539.367 37.2089 539.478 37.4817 539.671 37.6976C539.867 37.9106 540.114 38.0697 540.413 38.1748C540.714 38.2771 541.038 38.3283 541.384 38.3283C541.788 38.3283 542.15 38.2629 542.471 38.1322C542.792 37.9987 543.046 37.8141 543.234 37.5783C543.421 37.3396 543.515 37.0612 543.515 36.743C543.515 36.4533 543.434 36.2175 543.272 36.0356C543.11 35.8538 542.897 35.7061 542.633 35.5925C542.369 35.4788 542.083 35.3794 541.776 35.2942L540.703 34.9873C540.021 34.7913 539.481 34.5115 539.083 34.1479C538.685 33.7842 538.487 33.3084 538.487 32.7203C538.487 32.2317 538.619 31.8055 538.883 31.4419C539.15 31.0754 539.508 30.7913 539.957 30.5896C540.408 30.3851 540.913 30.2828 541.47 30.2828C542.032 30.2828 542.532 30.3837 542.97 30.5854C543.407 30.7842 543.754 31.057 544.009 31.4035C544.268 31.7501 544.404 32.1436 544.418 32.5839H543.396ZM546.633 39.1294H545.525L548.73 30.4021H549.821L553.025 39.1294H551.917L549.309 31.7828H549.241L546.633 39.1294ZM547.042 35.7203H551.508V36.6578H547.042V35.7203Z" fill="#959FAF"/>
<path d="M604.084 32.5839C604.033 32.1521 603.825 31.8169 603.462 31.5783C603.098 31.3396 602.652 31.2203 602.124 31.2203C601.737 31.2203 601.399 31.2828 601.11 31.4078C600.823 31.5328 600.598 31.7047 600.436 31.9234C600.277 32.1422 600.198 32.3908 600.198 32.6692C600.198 32.9021 600.253 33.1024 600.364 33.27C600.477 33.4348 600.622 33.5726 600.798 33.6834C600.975 33.7913 601.159 33.8808 601.352 33.9518C601.546 34.02 601.723 34.0754 601.885 34.118L602.771 34.3567C602.999 34.4163 603.252 34.4987 603.53 34.6038C603.811 34.7089 604.08 34.8524 604.335 35.0342C604.594 35.2132 604.807 35.4433 604.975 35.7246C605.142 36.0058 605.226 36.351 605.226 36.7601C605.226 37.2317 605.102 37.6578 604.855 38.0385C604.611 38.4192 604.253 38.7217 603.781 38.9462C603.313 39.1706 602.743 39.2828 602.073 39.2828C601.448 39.2828 600.906 39.182 600.449 38.9802C599.994 38.7785 599.636 38.4973 599.375 38.1365C599.117 37.7757 598.97 37.3567 598.936 36.8794H600.027C600.056 37.2089 600.166 37.4817 600.36 37.6976C600.556 37.9106 600.803 38.0697 601.101 38.1748C601.402 38.2771 601.726 38.3283 602.073 38.3283C602.476 38.3283 602.838 38.2629 603.159 38.1322C603.48 37.9987 603.735 37.8141 603.922 37.5783C604.11 37.3396 604.203 37.0612 604.203 36.743C604.203 36.4533 604.122 36.2175 603.96 36.0356C603.798 35.8538 603.585 35.7061 603.321 35.5925C603.057 35.4788 602.771 35.3794 602.465 35.2942L601.391 34.9873C600.709 34.7913 600.169 34.5115 599.771 34.1479C599.374 33.7842 599.175 33.3084 599.175 32.7203C599.175 32.2317 599.307 31.8055 599.571 31.4419C599.838 31.0754 600.196 30.7913 600.645 30.5896C601.097 30.3851 601.601 30.2828 602.158 30.2828C602.72 30.2828 603.22 30.3837 603.658 30.5854C604.095 30.7842 604.442 31.057 604.698 31.4035C604.956 31.7501 605.092 32.1436 605.107 32.5839H604.084ZM612.691 30.4021H613.748V36.1805C613.748 36.7771 613.607 37.3098 613.326 37.7785C613.047 38.2445 612.654 38.6123 612.145 38.8822C611.637 39.1493 611.04 39.2828 610.356 39.2828C609.671 39.2828 609.074 39.1493 608.566 38.8822C608.057 38.6123 607.662 38.2445 607.381 37.7785C607.103 37.3098 606.964 36.7771 606.964 36.1805V30.4021H608.02V36.0953C608.02 36.5214 608.114 36.9007 608.302 37.2331C608.489 37.5626 608.756 37.8226 609.103 38.0129C609.452 38.2004 609.87 38.2942 610.356 38.2942C610.841 38.2942 611.259 38.2004 611.608 38.0129C611.958 37.8226 612.225 37.5626 612.41 37.2331C612.597 36.9007 612.691 36.5214 612.691 36.0953V30.4021Z" fill="#959FAF"/>
<path d="M220.548 70.9043L250.304 69.8594L252.93 95.9978L219.673 94.953L220.548 70.9043Z" fill="#FFC2C2"/>
<path d="M478.284 134.945L508.04 133.898L510.665 160.039L477.409 158.992L478.284 134.945Z" fill="#FFC2C2"/>
<path d="M415.929 183.301L445.685 182.256L448.31 208.394L415.054 207.349L415.929 183.301Z" fill="#FFC2C2"/>
<path d="M605.767 185.916L635.521 184.87L638.148 211.01L604.892 209.963L605.767 185.916Z" fill="#FFC2C2"/>
<path d="M540.639 129.716L570.395 128.671L573.02 154.81L539.764 153.765L540.639 129.716Z" fill="#FF998B"/>
<path d="M285.677 124.488L315.43 123.443L318.058 149.581L284.802 148.536L285.677 124.488Z" fill="#FFC2C2"/>
<path d="M295.375 131.128L325.131 129.977L327.756 158.731L294.5 157.58L295.375 131.128Z" fill="#83B8B9"/>
<path d="M350.802 179.486L380.558 178.335L383.183 207.089L349.927 205.938L350.802 179.486Z" fill="#83B8B9"/>
<path d="M476.899 73.5181L506.653 72.4731L509.28 98.6116L476.024 97.5667L476.899 73.5181Z" fill="#FFC2C2"/>
<path d="M244.181 80.2262L276.537 79.0068L279.393 109.46L243.231 108.243L244.181 80.2262Z" fill="#FF998B"/>
<path d="M349.493 123.355L381.849 122.136L384.703 152.589L348.541 151.372L349.493 123.355Z" fill="#FF998B"/>
<path d="M297.416 72.3849L329.772 71.1655L332.626 101.619L296.464 100.401L297.416 72.3849Z" fill="#8B95B5"/>
<path d="M484.482 145.573L516.838 144.355L519.692 174.809L483.53 173.589L484.482 145.573Z" fill="#8B95B5"/>
<path d="M212.891 175.632L245.245 174.415L248.101 204.868L211.939 203.65L212.891 175.632Z" fill="#8B95B5"/>
<path d="M600.714 74.788L627.473 73.7803L629.834 98.964L599.927 97.9583L600.714 74.788Z" fill="#8B95B5"/>
<path d="M418.296 107.344L450.652 106.127L453.506 136.58L417.344 135.361L418.296 107.344Z" fill="#83B8B9"/>
<path d="M486.394 82.6533L513.791 81.6221L516.208 107.408L485.59 106.376L486.394 82.6533Z" fill="#83B8B9"/>
<path d="M592.323 116.056C592.864 119.014 589.821 122.988 588.495 125.419C597.676 131.324 613.653 145.184 613.653 145.184C613.653 145.184 612.905 146.204 611.733 147.85C608.904 151.163 596.591 169.058 595.842 170.721C595.784 170.85 595.73 170.97 595.672 171.099C595.298 171.201 594.913 171.307 594.508 171.43C579.499 175.986 592.752 174.291 592.752 174.291C582.411 186.575 592.176 177.776 592.176 177.776C592.176 177.776 587.759 183.573 588.019 184.444C588.279 185.314 593.483 180.441 593.483 180.441C593.483 180.441 589.611 184.605 590.187 185.844C590.65 186.841 595.063 182.66 596.765 180.993C596.79 181.029 596.811 181.066 596.836 181.101C595.587 182.734 592.876 186.451 593.845 186.72C595.753 187.251 635.004 148.98 634.368 145.239C633.465 139.924 610.178 115.983 601.633 108.191C598.881 105.681 595.751 103.997 592.766 102.854C592.388 107.505 591.694 112.6 592.323 116.056Z" fill="#FFC6B5"/>
<path opacity="0.1" d="M599.249 133.286C604.096 128.824 608.317 123.629 612.038 118.354C607.927 114.16 604.144 110.475 601.633 108.187C598.881 105.678 595.751 103.994 592.766 102.851C592.388 107.505 591.691 112.6 592.323 116.054C592.864 119.012 589.821 122.986 588.495 125.417C591.596 127.413 595.474 130.316 599.249 133.286Z" fill="#171717"/>
<path opacity="0.1" d="M606.524 172.185C604.458 169.756 602.529 166.628 600.299 163.857C597.952 167.314 596.119 170.111 595.844 170.721C595.786 170.85 595.732 170.97 595.674 171.099C595.3 171.201 594.915 171.307 594.51 171.431C579.501 175.987 592.754 174.291 592.754 174.291C582.413 186.575 592.178 177.776 592.178 177.776C592.178 177.776 587.761 183.573 588.021 184.444C588.281 185.314 593.485 180.441 593.485 180.441C593.485 180.441 589.613 184.605 590.189 185.844C590.652 186.842 595.065 182.66 596.767 180.994C596.792 181.029 596.813 181.066 596.838 181.101C595.589 182.734 592.878 186.451 593.847 186.72C594.583 186.924 600.876 181.354 608.295 174.22C607.698 173.544 607.106 172.87 606.524 172.185Z" fill="#171717"/>
<path d="M585.971 381.178C585.674 379.141 585.482 373.703 588.729 362.881C589.494 360.331 589.833 357.815 589.88 355.398C584.674 355.077 579.467 354.742 574.263 354.396L566.645 393.429C566.505 393.376 566.429 393.339 566.429 393.339C566.429 393.339 555.818 397.41 557.668 400.78C559.518 404.15 576.719 405.242 578.814 404.346C580.91 403.45 584.593 394.14 584.593 394.14L585.189 404.431H587.054C587.054 404.431 588.617 395.728 589.517 390.092C590.4 384.593 586.174 381.331 585.971 381.178Z" fill="#00344E"/>
<path d="M519.296 350.142C516.021 349.785 512.751 349.381 509.486 348.891C507.486 348.591 505.474 348.281 503.45 347.985L493.061 390.456C492.924 390.397 492.847 390.36 492.847 390.36C492.847 390.36 483.75 394.148 485.479 397.574C487.208 401.001 504.364 402.632 506.489 401.801C508.615 400.97 512.624 391.783 512.624 391.783L512.857 402.087L514.719 402.146C514.719 402.146 516.588 393.499 517.688 387.892C518.76 382.418 514.655 379.027 514.455 378.866C514.231 376.821 514.231 371.379 517.858 360.667C519.088 357.048 519.444 353.469 519.296 350.142Z" fill="#00344E"/>
<path d="M584.086 161.503C584.086 161.503 598.945 170.847 605.548 206.66C612.152 242.473 598.394 372.236 598.394 372.236C598.394 372.236 579.683 380.021 552.719 373.793C554.92 292.821 559.322 239.36 559.322 239.36C559.322 239.36 537.859 309.432 531.256 372.756C531.256 372.756 504.842 373.793 487.231 364.451C487.231 364.451 491.083 254.932 533.457 158.908L584.086 161.503Z" fill="#FD6A48"/>
<path opacity="0.1" d="M587.457 164.475C585.418 162.348 584.086 161.503 584.086 161.503L533.458 158.908C532.443 161.205 531.458 163.515 530.487 165.826C542.1 169.737 563.536 174.025 587.457 164.475Z" fill="#171717"/>
<path opacity="0.1" d="M559.156 241.438C558.339 251.991 554.665 302.107 552.717 373.792C579.682 380.021 598.392 372.236 598.392 372.236C598.392 372.236 608.698 275.043 607.189 225.674C597.889 234.559 582.777 241.918 559.156 241.438Z" fill="#171717"/>
<path d="M520.989 66.6886L523.047 51.5933L515.508 62.1835L520.989 66.6886Z" fill="#FFC6B5"/>
<path d="M549.629 35.9353C562.225 40.4463 560.868 48.5115 560.868 48.5115C560.868 48.5115 561.084 53.3695 559.901 60.7936C561.285 59.4586 555.316 80.2764 554.701 81.1606C552.373 84.4992 537.655 83.5641 530.222 83.3915C519.233 83.1386 518.422 75.3479 518.343 70.9604C518.148 59.9252 525.236 37.2136 525.236 37.2136C525.236 37.2136 528.771 28.4661 549.629 35.9353Z" fill="#FFC6B5"/>
<path d="M560.878 93.9696L556.54 73.7085L536.187 75.6571L539.515 94.9008C536.628 95.3085 533.836 95.8339 531.207 96.5044C545.804 100.904 561.57 102.852 574.825 95.2105C570.341 94.5871 565.629 94.1597 560.878 93.9696Z" fill="#FFC6B5"/>
<path opacity="0.1" d="M560.878 93.9696L556.54 73.7085L536.187 75.6571L539.515 94.9008C536.628 95.3085 533.836 95.8339 531.207 96.5044C545.804 100.904 561.57 102.852 574.825 95.2105C570.341 94.5871 565.629 94.1597 560.878 93.9696Z" fill="#171717"/>
<path opacity="0.1" d="M560.869 48.5115C560.869 48.5115 562.227 40.4463 549.631 35.9353C528.773 28.4661 525.238 37.2136 525.238 37.2136C525.238 37.2136 524.171 40.6365 522.878 45.4631C525.686 46.0551 528.247 47.1431 528.788 49.133C530.089 53.9243 530.089 58.7175 527.052 67.8669C525.853 71.478 524.113 76.4458 522.448 81.139C524.192 82.429 526.666 83.3112 530.224 83.3935C537.657 83.566 552.375 84.5012 554.703 81.1625C555.318 80.2784 561.287 59.4605 559.903 60.7956C561.086 53.3695 560.869 48.5115 560.869 48.5115Z" fill="#171717"/>
<path d="M592.253 73.8777C589.777 62.9777 584.41 66.481 583.999 51.6875C583.585 36.8941 579.459 30.2776 565.014 23.2691C553.794 17.8269 542.331 21.3067 537.767 23.1338C523.766 20.4343 516.998 38.8408 516.998 38.8408C517.549 39.4034 518.16 39.9073 518.808 40.3601C520.031 38.1487 522.103 34.6514 524.289 32.093C524.289 32.093 521.928 34.9317 519.578 40.8679C521.342 41.952 523.313 42.6931 525.142 43.2028C525.709 41.1345 526.829 37.5528 528.555 34.3005C528.555 34.3005 526.927 38.7663 526.239 43.487C529.222 44.1967 531.581 44.2928 531.581 44.2928C534.47 52.0776 530.756 62.9777 524.977 73.4895C519.199 83.9994 528.28 87.1145 528.28 87.1145C524.566 80.4961 530.756 70.3743 530.756 70.3743C526.628 78.9395 527.041 85.1678 537.359 89.0612C547.677 92.9546 570.79 88.2829 575.329 89.0612C579.869 89.8395 584.822 85.9461 584.822 85.9461L584.41 87.5026C584.41 87.5026 594.728 84.7777 592.253 73.8777Z" fill="#FF9C62"/>
<path opacity="0.1" d="M592.253 73.8782C589.777 62.9782 584.411 66.4815 583.999 51.688C583.781 43.8953 582.53 38.3708 579.285 33.8638C579.283 44.4834 574.818 55.4619 565.226 60.8707C556.411 65.8424 546.158 67.5518 536.168 65.0268C534.042 64.4897 531.937 63.8251 529.829 63.1526C528.538 66.5579 526.873 70.0436 524.98 73.4881C519.202 83.9979 528.283 87.1131 528.283 87.1131C524.568 80.4947 530.758 70.373 530.758 70.373C526.63 78.9381 527.044 85.1663 537.361 89.0598C547.679 92.9532 570.792 88.2815 575.332 89.0598C579.871 89.8381 584.824 85.9447 584.824 85.9447L584.413 87.5013C584.413 87.5013 594.728 84.7782 592.253 73.8782Z" fill="#171717"/>
<path d="M515.327 121.624C512.25 122.396 507.784 119.891 505.096 118.861C499.68 128.013 486.467 144.259 486.467 144.259C486.467 144.259 485.323 143.645 483.482 142.692C479.73 140.33 459.737 130.359 457.912 129.804C457.768 129.761 457.64 129.722 457.498 129.679C457.357 129.336 457.211 128.985 457.045 128.614C450.895 114.921 453.869 127.221 453.869 127.221C439.974 118.601 450.136 126.991 450.136 126.991C450.136 126.991 443.622 123.359 442.726 123.68C441.831 124.002 447.44 128.456 447.44 128.456C447.44 128.456 442.697 125.19 441.44 125.839C440.427 126.362 445.235 130.136 447.147 131.587C447.112 131.612 447.074 131.636 447.039 131.661C445.204 130.634 441.036 128.418 440.839 129.352C440.448 131.191 484.363 164.651 488.256 163.722C493.787 162.401 516.994 138.389 524.462 129.667C526.866 126.86 528.367 123.766 529.307 120.861C524.362 120.924 518.92 120.724 515.327 121.624Z" fill="#FFC6B5"/>
<path opacity="0.1" d="M518.606 136.172C520.986 133.618 523.021 131.355 524.465 129.669C526.87 126.862 528.371 123.768 529.31 120.863C524.364 120.922 518.92 120.724 515.328 121.624C512.252 122.396 507.785 119.891 505.098 118.861C504.013 120.694 502.612 122.814 501.07 125.029C506.644 129.305 511.969 133.533 518.606 136.172Z" fill="#171717"/>
<path d="M582.633 96.2831C579.661 95.25 576.059 94.3678 572.111 93.6895C560.403 101.598 545.899 99.4904 532.79 95.2441C531.909 95.5577 515.298 98.1808 499.887 121.537C499.887 121.537 507.842 128.897 520.598 133.641C520.498 137.237 521.525 142.144 526.927 145.312C529.666 155.718 532.356 163.581 532.356 163.581C532.356 163.581 567.025 173.703 584.086 161.505C586.044 158.601 590.419 144.565 592.514 130.373C604.493 122.794 610.797 113.251 610.797 113.251C598.949 102.27 589.006 97.9612 582.633 96.2831Z" fill="#00344E"/>
<path d="M74.5532 323.197C74.5532 323.197 90.8321 253.447 122.665 260.422C154.497 267.397 100.632 312.883 74.5532 323.197Z" fill="#75A1A5"/>
<path d="M78.4336 298.368C78.4336 298.368 81.8985 265.041 95.0617 236.942C105.099 215.514 123.469 189.239 135.94 199.041C155.168 214.154 135.283 235.125 126.239 246.091C116.539 257.852 101.989 269.614 78.4336 298.368Z" fill="#83B8B9"/>
<path d="M62.4979 284.646C62.4979 284.646 25.7769 208.189 25.7769 161.791C25.7769 115.394 70.8119 133.038 74.2747 164.405C77.7416 195.771 70.8119 257.2 62.4979 284.646Z" fill="#83B8B9"/>
<path d="M54.1839 301.634C54.1839 301.634 56.2624 247.395 45.8699 215.375C35.4773 183.356 7.76454 189.89 4.29966 203.613C0.836866 217.336 6.37817 250.01 54.1839 301.634Z" fill="#75A1A5"/>
<path d="M79.3501 259.628C79.3501 259.628 71.1503 205.901 79.138 172.932C87.1278 139.964 118.443 143.484 123.762 156.762C129.083 170.039 126.52 203.135 79.3501 259.628Z" fill="#75A1A5"/>
<path d="M56.8564 172.126C56.8564 172.126 64.8275 217.209 59.8994 356.658C59.8994 356.658 68.1136 310.174 22.1162 212.56" stroke="#FA321A" stroke-miterlimit="10" stroke-linecap="round"/>
<path d="M66.8164 345.94C66.8164 345.94 70.7427 316.075 110.879 277.964" stroke="#FA321A" stroke-miterlimit="10" stroke-linecap="round"/>
<path d="M54.8216 320.465C54.8216 320.465 42.4753 249.999 10.2958 255.378C-21.8837 260.758 29.3578 308.865 54.8216 320.465Z" fill="#83B8B9"/>
<path d="M61.2736 343.562C61.2736 343.562 59.0267 313.544 21.0835 273.484" stroke="#FA321A" stroke-miterlimit="10" stroke-linecap="round"/>
<path d="M102.943 172.95C76.2554 263.614 65.0897 319.161 64.7488 369.729C64.1835 356.149 77.7395 270.268 117.231 222.565" stroke="#FA321A" stroke-miterlimit="10" stroke-linecap="round"/>
<path opacity="0.15" d="M32.2178 386.51C32.2178 390.24 46.8214 393.265 64.8337 393.265C82.8461 393.265 97.4497 390.24 97.4497 386.51C97.4497 382.779 82.8461 379.754 64.8337 379.754C46.8214 379.754 32.2178 382.779 32.2178 386.51Z" fill="#0E2735"/>
<path d="M88.0902 349.755C88.0902 364.657 83.9976 377.801 77.76 385.637H50.941C44.7034 377.801 40.6108 364.657 40.6108 349.755C40.6108 345.893 40.8893 342.151 41.4048 338.587H87.2962C87.8138 342.151 88.0902 345.893 88.0902 349.755Z" fill="#FD6A48"/>
<path opacity="0.1" d="M88.0902 349.755C88.0902 364.657 83.9976 377.801 77.76 385.637H50.941C44.7034 377.801 40.6108 364.657 40.6108 349.755C40.6108 345.893 40.8893 342.151 41.4048 338.587H87.2962C87.8138 342.151 88.0902 345.893 88.0902 349.755Z" fill="#171E23"/>
<path d="M34.2197 337.903L93.8543 336.874L94.5527 347.158L34.5689 348.53L34.2197 337.903Z" fill="#FD6A48"/>
</svg>
