<svg width="770" height="312" viewBox="0 0 770 312" fill="none" xmlns="http://www.w3.org/2000/svg">
<path d="M706.183 159.814C706.183 159.814 712.6 149.256 697.783 126.361C684.292 105.513 636.134 103.807 643.563 117.634C649.163 128.058 669.527 121.027 684.037 135.815C698.547 150.603 698.038 158.36 706.183 159.814Z" fill="#75A1A5"/>
<path d="M708.984 148.663C708.984 148.663 701.856 147.451 694.983 114.725C688.11 81.9987 673.092 65.9992 680.728 64.0603C688.365 62.1215 700.839 70.3627 707.202 86.3622C713.565 102.362 719.42 145.269 709.493 149.633" fill="#83B8B9"/>
<path d="M707.457 189.875C707.457 189.875 707.966 168.057 699.565 158.119C691.165 148.18 675.789 142.04 661.637 149.634C643.564 159.332 627.272 182.361 636.945 185.997C646.617 189.633 665.455 161.27 680.982 167.573C696.511 173.875 692.947 184.541 707.457 189.875Z" fill="#83B8B9"/>
<path d="M706.183 222.115C706.183 222.115 708.983 217.024 706.692 202.963C704.401 188.903 695.428 182.669 688.109 181.63C676.145 179.933 659.345 190.842 658.326 202.478C657.307 214.114 676.909 196.66 685.054 197.63C699.856 199.393 699.31 223.328 706.183 222.115Z" fill="#75A1A5"/>
<path d="M720.566 178.359C720.566 178.359 720.566 162.724 733.93 157.269C747.294 151.815 769.441 156.178 769.441 165.269C769.441 174.36 749.967 162.724 741.567 166.723C733.166 170.723 727.821 181.268 720.566 178.359Z" fill="#75A1A5"/>
<path d="M715.22 218.722C715.22 218.722 715.22 203.45 720.184 194.359C725.148 185.269 739.276 174.36 757.222 189.632C774.253 204.125 765.622 204.541 747.294 195.086C728.966 185.632 728.966 226.722 715.22 218.722Z" fill="#83B8B9"/>
<path d="M671.511 194.256C671.511 194.256 683.319 182.71 695.408 192.986C707.497 203.262 708.673 249.794 708.673 249.794C708.673 249.794 715.637 188.925 696.934 164.799C678.23 140.672 652.843 171.099 652.843 171.099" stroke="#587A7B" stroke-width="0.687" stroke-miterlimit="10" stroke-linecap="round"/>
<path d="M666.178 117.296C666.178 117.296 696.373 121.155 704.127 152.434C711.883 183.712 709.795 252.668 709.795 252.668C709.795 252.668 717.689 104.932 693.231 76.6284" stroke="#587A7B" stroke-width="0.687" stroke-miterlimit="10" stroke-linecap="round"/>
<path d="M749.271 161.138C749.271 161.138 724.235 159.049 717.585 186.435C710.935 213.82 709.971 257.513 709.971 257.513C709.971 257.513 711.409 184.698 743.166 189.476" stroke="#587A7B" stroke-width="0.687" stroke-miterlimit="10" stroke-linecap="round"/>
<path d="M714.075 189.632C714.075 189.632 710.257 181.268 714.457 166.36C718.657 151.451 734.694 126.361 752.64 129.997C770.586 133.634 745.385 143.088 736.603 151.451C727.821 159.815 725.148 191.814 714.075 189.632Z" fill="#83B8B9"/>
<path d="M712.257 154.721C712.257 154.721 707.723 139.411 715.967 122.137C724.212 104.864 745.235 91.1244 751.007 97.0122C756.779 102.901 744 111.144 733.281 122.528C722.562 133.913 726.273 150.01 712.257 154.721Z" fill="#75A1A5"/>
<path d="M736.13 107.722C736.13 107.722 716.338 123.896 712.392 155.559C708.445 187.222 711.147 247.773 711.147 247.773C711.147 247.773 707.883 143.579 743.358 138.532" stroke="#587A7B" stroke-width="0.687" stroke-miterlimit="10" stroke-linecap="round"/>
<path opacity="0.15" d="M678.543 288.536C678.543 292.202 692.75 295.172 710.275 295.172C727.8 295.172 742.007 292.2 742.007 288.536C742.007 284.871 727.8 281.901 710.275 281.901C692.75 281.901 678.543 284.872 678.543 288.536Z" fill="#0E2735"/>
<path d="M734.599 249.019C734.599 265.184 730.149 279.446 723.369 287.946H694.214C687.432 279.444 682.983 265.184 682.983 249.019C682.983 244.828 683.286 240.769 683.846 236.903H733.736C734.297 240.77 734.599 244.83 734.599 249.019Z" fill="#FA321A"/>
<path opacity="0.2" d="M703.5 270.356C711.062 274.412 719.41 277.532 728.204 280.075C726.778 283.05 725.157 285.704 723.367 287.947H694.212C688.13 280.323 683.936 268.06 683.133 253.951C688.498 260.111 695.025 265.813 703.5 270.356Z" fill="#001627"/>
<path d="M40.5215 199.086C40.5215 199.086 49.6855 175.087 26.7755 157.633C3.86553 140.179 -9.1168 177.996 9.97485 191.086C29.0665 204.177 40.5215 199.086 40.5215 199.086Z" fill="#75A1A5"/>
<path d="M83.4712 211.462C83.4712 211.462 84.5999 186.22 112.878 178.85C141.159 171.48 138.027 210.715 115.044 215.534C92.0624 220.351 83.4712 211.462 83.4712 211.462Z" fill="#75A1A5"/>
<path d="M72.3144 152.024C72.3144 152.024 101.425 140.06 98.7953 108.663C96.1652 77.2659 51.002 86.2125 56.6165 117.279C61.1145 142.169 72.3144 152.024 72.3144 152.024Z" fill="#83B8B9"/>
<path d="M90.5411 183.814C90.5411 183.814 112.774 190.088 126.433 171.087C140.092 152.085 110.56 138.586 99.3232 153.633C87.1046 169.996 90.5411 183.814 90.5411 183.814Z" fill="#83B8B9"/>
<path d="M54.9727 121.87C54.9727 121.87 80.2317 100.18 65.722 75.0899C47.7362 43.9898 6.55472 73.5845 22.6192 97.7059C38.6822 121.827 54.9727 121.87 54.9727 121.87Z" fill="#75A1A5"/>
<path d="M39.1375 157.516C39.1375 157.516 6.68172 156.062 0.572393 124.063C-5.53694 92.0638 39.1375 91.3365 45.2469 119.699C51.3562 148.062 39.1375 157.516 39.1375 157.516Z" fill="#83B8B9"/>
<path d="M92.9817 157.253C92.9817 157.253 86.0292 116.143 105.898 104.05C130.633 88.9949 153.702 118.997 132.701 139.723C114.555 157.633 92.9817 157.253 92.9817 157.253Z" fill="#75A1A5"/>
<path d="M19.7451 171.787C41.3553 194.451 54.0536 220.142 67.8286 251.01C59.665 216.27 64.5815 180.381 58.8647 145.2C54.9654 122.366 53.5052 111.087 45.1049 86.7246" stroke="#587A7B" stroke-width="0.75" stroke-miterlimit="10" stroke-linecap="round" stroke-linejoin="round"/>
<path d="M22.2603 120.963C45.1183 165.974 60.3565 219.766 65.7938 247.151C68.5124 201.908 93.6019 148.232 116.232 125.269" stroke="#587A7B" stroke-width="0.75" stroke-miterlimit="10" stroke-linecap="round" stroke-linejoin="round"/>
<path d="M64.6772 257.525C68.2023 221.54 94.1884 193.759 114.632 188.699" stroke="#587A7B" stroke-width="0.75" stroke-miterlimit="10" stroke-linecap="round" stroke-linejoin="round"/>
<path d="M80.6135 107.089C80.6135 107.089 61.9358 192.477 66.2214 242.738C66.2214 242.738 67.8038 203.388 113.379 155.266" stroke="#587A7B" stroke-width="0.75" stroke-miterlimit="10" stroke-linecap="round" stroke-linejoin="round"/>
<path opacity="0.15" d="M44.0278 288.536C44.0278 291.056 53.7905 293.096 65.832 293.096C77.8735 293.096 87.6362 291.054 87.6362 288.536C87.6362 286.019 77.8735 283.977 65.832 283.977C53.7905 283.978 44.0278 286.019 44.0278 288.536Z" fill="#0E2735"/>
<path d="M84.6229 243.3C84.6229 261.84 81.1772 278.196 75.9247 287.947H53.3446C48.0937 278.196 44.6465 261.84 44.6465 243.3C44.6465 238.494 44.8801 233.838 45.3154 229.403H83.9524C84.3892 233.838 84.6229 238.494 84.6229 243.3Z" fill="#FD6A48"/>
<path opacity="0.2" d="M60.5384 267.772C66.3942 272.423 72.8594 276.001 79.6713 278.918C78.567 282.33 77.3115 285.373 75.9262 287.946H53.3462C48.6359 279.201 45.3872 265.136 44.7656 248.954C48.9215 256.021 53.9754 262.56 60.5384 267.772Z" fill="#001627"/>
<path d="M443.234 220.997H330.033V229.069H443.234V220.997Z" fill="#254251"/>
<path opacity="0.3" d="M443.234 220.997H330.033V229.069H443.234V220.997Z" fill="#FF1B00"/>
<path d="M392.799 191.586H383.287V288.706H392.799V191.586Z" fill="#FA321A"/>
<path opacity="0.3" d="M392.799 194.661H383.287V208.191H392.799V194.661Z" fill="#141D1F"/>
<path d="M446.39 191.586H436.878V291.538H446.39V191.586Z" fill="#FA321A"/>
<path opacity="0.3" d="M446.39 194.661H436.878V208.191H446.39V194.661Z" fill="#141D1F"/>
<path d="M334.348 191.586H324.835V291.538H334.348V191.586Z" fill="#FA321A"/>
<path opacity="0.3" d="M334.348 194.661H324.835V208.191H334.348V194.661Z" fill="#141D1F"/>
<path d="M500.179 18.0659H264.64V201.528H500.179V18.0659Z" fill="#FD6A48"/>
<path d="M495.177 24.7275H271.917V193.841H495.177V24.7275Z" fill="white"/>
<path d="M456.785 16.3076H311.984V26.3844H456.785V16.3076Z" fill="#FA321A"/>
<path d="M410.288 12.7021H358.48V20.5943H410.288V12.7021Z" fill="#FA321A"/>
<path opacity="0.1" d="M380.466 311.826C523.414 311.826 639.297 304.279 639.297 294.969C639.297 285.66 523.414 278.113 380.466 278.113C237.517 278.113 121.635 285.66 121.635 294.969C121.635 304.279 237.517 311.826 380.466 311.826Z" fill="#001627"/>
<path d="M290.585 180.662H476.935" stroke="#959FAF" stroke-miterlimit="10" stroke-linecap="round"/>
<path d="M293.639 176.071V184.205" stroke="#959FAF" stroke-miterlimit="10" stroke-linecap="round"/>
<path d="M338.815 176.071V184.205" stroke="#959FAF" stroke-miterlimit="10" stroke-linecap="round"/>
<path d="M383.989 176.071V184.205" stroke="#959FAF" stroke-miterlimit="10" stroke-linecap="round"/>
<path d="M429.164 176.071V184.205" stroke="#959FAF" stroke-miterlimit="10" stroke-linecap="round"/>
<path d="M474.34 176.071V184.205" stroke="#959FAF" stroke-miterlimit="10" stroke-linecap="round"/>
<path d="M292.149 162.36L337.682 124.543L383.216 141.27L428.749 85.2714L474.283 50.7271" stroke="#FA321A" stroke-width="2" stroke-miterlimit="10"/>
<path d="M292.149 170.723C296.999 170.723 300.931 166.979 300.931 162.36C300.931 157.741 296.999 153.997 292.149 153.997C287.298 153.997 283.366 157.741 283.366 162.36C283.366 166.979 287.298 170.723 292.149 170.723Z" fill="#FF9C62"/>
<path d="M337.682 132.906C342.532 132.906 346.464 129.162 346.464 124.543C346.464 119.924 342.532 116.18 337.682 116.18C332.831 116.18 328.899 119.924 328.899 124.543C328.899 129.162 332.831 132.906 337.682 132.906Z" fill="#FF9C62"/>
<path d="M383.216 149.633C388.066 149.633 391.998 145.889 391.998 141.27C391.998 136.651 388.066 132.906 383.216 132.906C378.366 132.906 374.434 136.651 374.434 141.27C374.434 145.889 378.366 149.633 383.216 149.633Z" fill="#FF9C62"/>
<path d="M428.748 93.635C433.599 93.635 437.531 89.8905 437.531 85.2716C437.531 80.6526 433.599 76.9082 428.748 76.9082C423.898 76.9082 419.966 80.6526 419.966 85.2716C419.966 89.8905 423.898 93.635 428.748 93.635Z" fill="#FF9C62"/>
<path d="M474.283 59.0905C479.133 59.0905 483.065 55.3461 483.065 50.7271C483.065 46.1082 479.133 42.3638 474.283 42.3638C469.433 42.3638 465.501 46.1082 465.501 50.7271C465.501 55.3461 469.433 59.0905 474.283 59.0905Z" fill="#FF9C62"/>
<path d="M224.515 215.769C224.515 215.769 216.614 226.643 219.749 238.752C222.885 250.861 226.335 279.174 226.335 279.174L236.014 294.535L244.422 295.646L236.319 279.557C236.319 279.557 238.71 225.808 240.252 216.428C241.797 207.048 226.885 202.807 224.515 215.769Z" fill="#FFC6B5"/>
<path d="M226.348 278.556C226.348 278.556 222.768 280.98 223.343 285.7C223.918 290.419 225.007 295.639 225.007 295.639L225.891 295.816L227.208 291.969C227.208 291.969 231.15 297.157 232.851 297.96C234.553 298.763 247.245 302.53 248.871 299.772C250.498 297.015 243.229 293.384 243.229 293.384C243.229 293.384 239.594 296.622 236.115 293.538C232.639 290.453 226.348 278.556 226.348 278.556Z" fill="#75A1A5"/>
<path d="M248.873 298.561C247.246 301.319 234.554 297.552 232.853 296.749C231.151 295.946 226.603 288.781 226.603 288.781C226.603 288.781 223.803 285.024 223.343 284.487C223.324 284.464 223.314 284.442 223.296 284.419C223.282 284.826 223.29 285.249 223.343 285.699C223.918 290.417 224.486 296.234 224.486 296.234C224.486 296.234 231.151 297.157 232.853 297.96C234.554 298.763 247.246 302.53 248.873 299.773C249.157 299.291 249.157 298.782 248.986 298.272C248.949 298.368 248.928 298.466 248.873 298.561Z" fill="#001627"/>
<path opacity="0.1" d="M222.653 253.422C227.739 253.403 232.747 253.253 237.645 252.654C238.446 237.734 239.46 221.243 240.252 216.43C241.797 207.048 226.885 202.808 224.513 215.771C224.513 215.771 216.612 226.645 219.748 238.753C220.724 242.521 221.73 247.857 222.653 253.422Z" fill="#001627"/>
<path d="M174.445 277.636C174.445 277.636 170.267 293.46 171.267 297.371C172.267 301.282 181.534 306.719 184.608 299.173L184.549 290.904L182.659 283.435L174.445 277.636Z" fill="#75A1A5"/>
<path d="M171.265 295.31C171.213 295.105 171.178 294.86 171.152 294.594C171.079 295.758 171.1 296.727 171.265 297.369C172.266 301.281 181.532 306.718 184.607 299.17L184.591 297.138C181.505 304.64 172.264 299.217 171.265 295.31Z" fill="#001627"/>
<path d="M183.263 220.095C183.263 220.095 173.566 232.816 174.838 246.426C176.11 260.035 173.638 285.595 173.638 285.595C173.638 285.595 173.314 290.708 175.249 291.432C179.77 293.898 184.521 290.904 184.521 290.904L184.471 280.515C184.471 280.515 194.495 237.383 200.61 222.522C206.726 207.659 188.883 198.827 183.263 220.095Z" fill="#FFC6B5"/>
<path opacity="0.1" d="M174.919 247.397C180.272 249.684 186.018 252.22 191.431 252.572C194.455 241.14 197.913 229.079 200.611 222.521C206.727 207.659 188.885 198.827 183.264 220.095C183.264 220.095 173.567 232.816 174.839 246.426C174.867 246.741 174.893 247.07 174.919 247.397Z" fill="#001627"/>
<path d="M252.057 172.905C251.371 133.68 233.714 104.74 230.152 99.2898C229.752 98.6774 229.529 98.3618 229.529 98.3618L194.018 103.089C165.381 143.088 164.235 238.357 164.235 238.357C186.382 253.993 202.037 245.63 202.037 245.63L216.546 188.177L212.728 246.357C233.729 254.721 247.475 247.448 247.475 247.448C247.475 247.448 252.821 216.54 252.057 172.905Z" fill="#FFA995"/>
<path opacity="0.1" d="M252.057 172.905C251.751 155.415 248.069 139.98 243.77 127.75C239.696 134.891 232.599 144.071 221.002 150.119C221.002 150.119 219.001 168.372 216.004 190.326L216.546 188.179L212.728 246.359C233.729 254.723 247.475 247.45 247.475 247.45C247.475 247.45 252.82 216.54 252.057 172.905Z" fill="#001627"/>
<path d="M197.141 58.1422L194.665 34.188L210.744 44.5368L212.668 58.5741L224.757 61.8177C224.757 61.8177 232.052 76.9736 209.183 78.8135C186.313 80.6535 179.319 63.9994 179.319 63.9994L197.141 58.1422Z" fill="#FFC6B5"/>
<path opacity="0.1" d="M211.126 57.0193C206.457 56.8302 201.786 56.7095 197.114 56.6455L194.666 34.188L210.744 44.5368L212.45 56.9829C212.008 56.9946 211.567 57.0076 211.126 57.0193Z" fill="#001627"/>
<path d="M188.672 38C188.672 38 191.536 44.3634 196.309 47.0906C201.082 49.8178 192.682 38.5454 192.682 38.5454L188.672 38Z" fill="#00344E"/>
<path d="M191.163 32.7929C191.163 32.7929 186.618 29.9624 186 32.3638C185.381 34.7638 186.111 40.5774 190.623 41.4414C195.135 42.3053 191.163 32.7929 191.163 32.7929Z" fill="#FFC6B5"/>
<path d="M192.738 16.9025C192.738 16.9025 213.217 1.33645 223.37 22.5707C235.206 47.3219 212.401 63.9745 195.452 45.5431C189.406 38.9687 178.82 19.1715 192.738 16.9025Z" fill="#FFC6B5"/>
<path d="M185.618 34.1209C185.618 34.1209 187.183 29.2295 190.963 33.5144C193.636 36.5441 194.305 38.4539 194.305 38.4539C194.305 38.4539 196.311 36.1805 194.401 31.4534C194.401 31.4534 197.838 28.2709 195.738 19.5439C195.738 19.5439 205.856 23.6354 212.539 21.9991L208.529 19.4538C208.529 19.4538 219.03 23.09 227.239 18.7265C227.239 18.7265 223.612 6.18144 208.72 4.36332C193.829 2.54519 190.774 15.2721 190.774 15.2721C190.774 15.2721 182.882 16.3019 182.31 22.1199C181.839 26.8833 185.618 34.1209 185.618 34.1209Z" fill="#00344E"/>
<path d="M190.646 43.4543C191.595 43.4543 192.364 42.7217 192.364 41.818C192.364 40.9142 191.595 40.1816 190.646 40.1816C189.697 40.1816 188.928 40.9142 188.928 41.818C188.928 42.7217 189.697 43.4543 190.646 43.4543Z" fill="#FFA995"/>
<path d="M190.796 59.9191C190.748 60.8224 191.478 61.5903 192.427 61.6354C193.375 61.6805 194.182 60.9853 194.228 60.082C194.275 59.1788 193.545 58.4108 192.596 58.3657C191.649 58.3221 190.843 59.0173 190.796 59.9191Z" fill="#FFA995"/>
<path d="M192.926 63.055C192.879 63.9582 193.609 64.7262 194.557 64.7698C195.506 64.8135 196.312 64.1197 196.359 63.2164C196.407 62.3132 195.677 61.5452 194.728 61.5016C193.778 61.4565 192.973 62.1517 192.926 63.055Z" fill="#FFA995"/>
<path d="M196.364 65.5237C196.317 66.4255 197.047 67.195 197.995 67.2386C198.944 67.2837 199.75 66.5884 199.796 65.6852C199.843 64.7819 199.113 64.014 198.165 63.9703C197.218 63.9252 196.411 64.6205 196.364 65.5237Z" fill="#FFA995"/>
<path d="M200.732 67.3081C200.685 68.2113 201.415 68.9793 202.363 69.0244C203.312 69.0695 204.118 68.3742 204.166 67.471C204.213 66.5692 203.483 65.7997 202.534 65.7561C201.586 65.7096 200.78 66.4048 200.732 67.3081Z" fill="#FFA995"/>
<path d="M205.194 67.276C205.146 68.1778 205.876 68.9473 206.825 68.9909C207.772 69.036 208.58 68.3407 208.627 67.4375C208.674 66.5343 207.944 65.7663 206.996 65.7212C206.047 65.6775 205.241 66.3728 205.194 67.276Z" fill="#FFA995"/>
<path d="M208.835 65.8711C208.787 66.7743 209.517 67.5423 210.466 67.5874C211.414 67.6325 212.221 66.9372 212.268 66.034C212.315 65.1322 211.585 64.3627 210.637 64.3191C209.688 64.2726 208.882 64.9678 208.835 65.8711Z" fill="#FFA995"/>
<path d="M212.296 63.333C212.371 64.2333 213.2 64.9053 214.145 64.834C215.091 64.7628 215.796 63.9744 215.722 63.0726C215.647 62.1723 214.817 61.5003 213.872 61.5716C212.926 61.6443 212.219 62.4327 212.296 63.333Z" fill="#FFA995"/>
<path d="M214.643 59.5918C214.596 60.4951 215.326 61.2631 216.274 61.3067C217.223 61.3518 218.029 60.6565 218.077 59.7533C218.124 58.85 217.394 58.0821 216.446 58.037C215.497 57.9948 214.691 58.69 214.643 59.5918Z" fill="#FFA995"/>
<path d="M210.394 26.482C210.394 26.482 209.73 26.194 208.8 25.9263C208.568 25.858 208.316 25.8013 208.056 25.7474C207.798 25.682 207.518 25.6762 207.247 25.6311C206.97 25.618 206.689 25.6093 206.41 25.6369C206.127 25.6267 205.855 25.7169 205.579 25.7649C205.308 25.8391 205.033 25.922 204.772 26.0311C204.531 26.1838 204.242 26.2492 204.012 26.4151C203.783 26.5794 203.532 26.7074 203.306 26.8543C203.101 27.0259 202.891 27.1772 202.691 27.3198C202.284 27.5961 201.997 27.8972 201.745 28.0688C201.504 28.2521 201.351 28.3525 201.351 28.3525C201.351 28.3525 201.392 28.1881 201.493 27.9059C201.609 27.6339 201.719 27.2034 202.022 26.7772C202.287 26.3249 202.674 25.8333 203.207 25.3867C203.732 24.9329 204.432 24.5722 205.194 24.3569C205.588 24.2958 205.977 24.2086 206.37 24.2333C206.762 24.2086 207.134 24.3089 207.489 24.3744C208.184 24.5678 208.778 24.8544 209.206 25.1904C210.089 25.8303 210.394 26.482 210.394 26.482Z" fill="#001627"/>
<path d="M223.555 24.2695C223.555 24.2695 222.973 24.1066 222.102 23.8637C221.682 23.7502 221.207 23.6208 220.714 23.5262C220.468 23.4666 220.215 23.4448 219.969 23.4142C219.718 23.359 219.479 23.3968 219.236 23.3793C219.011 23.42 218.761 23.3866 218.556 23.4739C218.451 23.5088 218.341 23.5291 218.231 23.5509L217.931 23.6862C217.721 23.756 217.551 23.9 217.363 24.0106C217.169 24.1138 217.027 24.2753 216.87 24.4033C216.543 24.6564 216.325 24.94 216.135 25.1218C215.949 25.308 215.827 25.4171 215.827 25.4171C215.827 25.4171 215.828 25.2687 215.859 25.0054C215.898 24.7451 215.921 24.3509 216.149 23.9306C216.251 23.7168 216.338 23.4637 216.546 23.2557C216.735 23.039 216.91 22.7742 217.206 22.6084C217.473 22.4077 217.772 22.2215 218.125 22.1314C218.463 21.9888 218.825 21.9859 219.182 21.9263C219.529 21.9554 219.892 21.9452 220.212 22.0295C220.546 22.0804 220.845 22.1997 221.13 22.3103C221.698 22.5372 222.164 22.8382 222.524 23.1335C223.251 23.7182 223.555 24.2695 223.555 24.2695Z" fill="#001627"/>
<path d="M215.491 28.2852C216.285 29.7178 216.978 31.1883 217.594 32.6865C217.921 33.4283 218.22 34.1802 218.493 34.9424C218.782 35.6987 219.065 36.4565 219.304 37.2303L219.361 37.4136L219.208 37.4951C217.915 38.1903 216.604 38.8579 215.275 39.4979C216.49 38.679 217.722 37.8863 218.97 37.1198L218.874 37.3845C218.513 36.6544 218.197 35.9096 217.886 35.162C217.559 34.4202 217.259 33.6683 216.986 32.9061C216.403 31.3949 215.895 29.8589 215.491 28.2852Z" fill="#B58D89"/>
<path d="M209.806 29.522C209.806 29.522 209.999 30.0863 209.991 30.9808C209.971 31.4259 209.925 31.9597 209.641 32.5255C209.586 32.6681 209.492 32.8077 209.38 32.9473C209.281 33.0913 209.166 33.2309 208.986 33.3357C208.69 33.5844 208.227 33.708 207.842 33.7095C207.647 33.6935 207.446 33.6746 207.26 33.6397L206.774 33.452C206.431 33.3473 206.222 33.1248 205.965 32.9648C205.47 32.6259 205.154 32.2041 204.844 31.8783C204.325 31.1481 204.053 30.6288 204.053 30.6288C204.053 30.6288 204.596 30.9285 205.301 31.4274C205.684 31.6281 206.076 31.9495 206.529 32.1677C206.75 32.2739 206.981 32.4281 207.204 32.4819L207.538 32.6026L207.839 32.6215C208.027 32.6244 208.187 32.6026 208.332 32.4891C208.482 32.4077 208.642 32.2492 208.76 32.0644C209.024 31.7037 209.194 31.2514 209.346 30.8717C209.641 30.0936 209.806 29.522 209.806 29.522Z" fill="#001627"/>
<path d="M223.297 27.6572C223.297 27.6572 223.489 28.2201 223.482 29.1161C223.462 29.5612 223.416 30.095 223.132 30.6608C223.077 30.8033 222.981 30.9429 222.871 31.0826C222.772 31.2266 222.657 31.3662 222.477 31.4724C222.18 31.7211 221.718 31.8447 221.333 31.8462C221.137 31.8302 220.937 31.8113 220.751 31.7764L220.265 31.5887C219.922 31.484 219.712 31.2615 219.456 31.1015C218.961 30.7626 218.645 30.3408 218.335 30.015C217.815 29.2848 217.543 28.7656 217.543 28.7656C217.543 28.7656 218.087 29.0652 218.791 29.5641C219.175 29.7648 219.567 30.0862 220.019 30.3044C220.241 30.412 220.471 30.5648 220.694 30.6186L221.029 30.7379L221.33 30.7568C221.518 30.7597 221.678 30.7379 221.823 30.6244C221.973 30.543 222.133 30.3844 222.251 30.1997C222.515 29.839 222.684 29.3866 222.837 29.007C223.132 28.2288 223.297 27.6572 223.297 27.6572Z" fill="#001627"/>
<path d="M191.345 39.0912C190.728 39.0868 190.082 39.0374 189.493 38.6883C189.347 38.5981 189.204 38.4788 189.102 38.313C188.995 38.1516 188.949 37.9334 188.973 37.7458C189.008 37.34 189.26 37.0869 189.464 36.8294L189.473 36.8178L189.505 36.7931L190.505 36.0425L190.397 36.4294C190.006 35.6484 189.6 34.8164 189.027 34.1808C188.891 34.0222 188.74 33.8681 188.576 33.7822C188.411 33.6761 188.255 33.6746 188.087 33.7313C187.921 33.8157 187.765 33.9611 187.631 34.1444C187.499 34.3233 187.405 34.5313 187.275 34.7262C187.328 34.5051 187.363 34.2724 187.458 34.0557C187.554 33.8361 187.67 33.615 187.904 33.4375C188.155 33.2819 188.514 33.2601 188.77 33.3823C189.042 33.4826 189.245 33.6455 189.436 33.8099C189.813 34.1473 190.081 34.5444 190.342 34.9386C190.594 35.34 190.843 35.7327 191.024 36.1749L191.125 36.4207L190.916 36.5632L189.881 37.2672L189.922 37.2323C189.746 37.4243 189.566 37.6338 189.52 37.8214C189.461 38.0032 189.541 38.1996 189.749 38.3712C190.165 38.6985 190.759 38.9224 191.345 39.0912Z" fill="#B58D89"/>
<path d="M207.262 44.1509C207.022 46.1916 208.422 48.0141 210.388 48.2235C212.354 48.433 214.142 46.9479 214.382 44.9087C214.622 42.868 213.221 41.0455 211.256 40.8361C209.288 40.6267 207.501 42.1117 207.262 44.1509Z" fill="#76534A"/>
<path d="M207.254 44.5829C207.245 46.4403 208.564 48.03 210.39 48.2235C211.23 48.3122 212.028 48.0795 212.697 47.6388C212.707 45.7799 211.387 44.1916 209.562 43.9982C208.72 43.9094 207.921 44.1422 207.254 44.5829Z" fill="#D79A9A"/>
<path d="M282.276 82.2171C282.249 82.1938 282.217 82.172 282.189 82.1487C283.862 80.9938 288.079 77.9772 287.249 77.4914C286.22 76.8878 282.082 79.4739 282.082 79.4739C282.082 79.4739 287.002 75.9118 286.263 75.6034C285.523 75.2951 279.878 78.1212 279.878 78.1212C279.878 78.1212 288.804 71.397 276.728 78.1677C276.728 78.1677 279.776 67.835 273.992 79.2266C273.836 79.5335 273.696 79.8259 273.563 80.1124C273.442 80.1429 273.331 80.1706 273.209 80.2026C271.637 80.604 268.145 82.5341 265.34 83.9101C260.309 85.8635 254.39 88.2823 251.148 90.1281C249.553 90.8655 248.564 91.3411 248.564 91.3411C248.564 91.3411 238.158 76.9968 234.004 69C231.696 69.768 227.822 71.7199 225.266 70.9403C222.28 70.0313 217.687 69.9832 213.522 69.7345C214.185 72.2435 215.31 74.9329 217.21 77.4157C223.112 85.1319 241.588 106.478 246.189 107.822C249.443 108.773 268.071 95.9344 277.832 87.3936C277.965 87.3034 278.098 87.2118 278.227 87.1216C278.319 87.0925 278.376 87.0736 278.376 87.0736C278.376 87.0736 287.843 82.0803 287.596 80.5007C287.472 79.7022 283.868 81.4185 282.276 82.2171Z" fill="#FFC6B5"/>
<path opacity="0.1" d="M234.153 69.3286C230.199 74.0528 225.945 78.4978 221.485 82.7551C222.347 83.7922 223.268 84.8889 224.238 86.0263C229.591 83.9987 234.677 81.2526 239.548 78.2767C237.49 75.1161 235.523 71.9205 234.153 69.3286Z" fill="#001627"/>
<path d="M223.335 62.4648C220.556 71.09 215.401 73.6354 205.278 74.4267C196.555 75.1088 187.788 71.1802 182.629 64.4648C183.24 65.4611 184.158 67.3651 184.417 70.1824C184.729 73.567 184.483 74.7888 182.989 79.5305C184.271 92.7417 193.332 101.787 194.02 103.089C195.245 105.412 215.561 108.349 229.817 99.4921C229.817 99.4921 241.75 86.2721 223.335 62.4648Z" fill="#CEDFDB"/>
<path opacity="0.1" d="M211.414 91.6785C201.239 90.3505 189.537 87.0371 183.128 79.0767C183.079 79.2337 183.04 79.3661 182.988 79.5319C184.269 92.7431 193.331 101.789 194.018 103.09C195.243 105.413 215.56 108.35 229.816 99.4935C229.816 99.4935 233.428 95.4762 233.604 87.8982C227.303 91.421 219.792 92.7708 211.414 91.6785Z" fill="#001627"/>
<path d="M224.062 60.8369C223.294 62.7467 222.569 67.0534 221.319 68.7261H220.747L229.46 79.6305C231.314 78.976 238.59 75.5565 238.59 75.5565C234.187 66.6884 228.286 62.6609 224.062 60.8369Z" fill="#CEDFDB"/>
<path d="M192.873 101.453L192.3 105.634C192.3 105.634 214.637 110.907 231.438 100.18L230.674 98.3618C230.674 98.3618 212.728 104.362 192.873 101.453Z" fill="#00344E"/>
<path d="M187.145 111.089C187.145 111.089 185.679 111.096 182.158 114.232C179.157 107.79 170.628 96.6483 170.638 96.1393C170.645 95.6593 176.519 89.4573 180.788 85.0109C181.983 83.7673 183.047 82.6648 183.828 81.859C183.869 81.8168 183.904 81.7804 183.944 81.7397C184.109 81.5695 184.264 81.4081 184.399 81.2699C184.403 81.2641 184.41 81.2583 184.414 81.2539C184.874 80.7797 185.141 80.5063 185.141 80.5063L182.253 75.7341L177.242 67.4536L177.237 67.458C177.216 67.4783 174.294 70.2201 170.657 74.0687C170.671 74.0861 170.686 74.1036 170.7 74.121C164.586 80.6168 156.207 90.2936 154.897 95.812C154.477 97.5792 156.843 100.504 160.301 103.676L160.224 103.634C160.224 103.634 160.739 104.09 161.606 104.842C161.849 105.052 162.094 105.263 162.343 105.476C168 110.328 183.148 122.879 184.852 119.634C186.122 117.216 185.998 116.907 185.998 116.907C185.998 116.907 194.971 122.361 186.571 115.452C186.571 115.452 200.508 118.907 187.334 113.634C187.334 113.634 199.553 114.543 188.289 112.179C188.289 112.179 200.891 108.907 187.145 111.089Z" fill="#FFC6B5"/>
<path opacity="0.1" d="M166.456 78.774C170.296 82.1004 174.433 84.8451 178.87 87.0137C179.527 86.3257 180.175 85.6494 180.787 85.0109C181.981 83.7673 183.046 82.6648 183.826 81.859C183.868 81.8168 183.903 81.7804 183.942 81.7397C184.107 81.5695 184.263 81.4081 184.398 81.2699C184.402 81.2641 184.408 81.2583 184.413 81.2539C184.873 80.7797 185.14 80.5063 185.14 80.5063L182.252 75.7341L177.241 67.4536L177.236 67.458C177.215 67.4783 174.293 70.2201 170.656 74.0687C170.67 74.0861 170.685 74.1036 170.699 74.121C169.364 75.5435 167.915 77.1231 166.456 78.774Z" fill="#001627"/>
<path d="M180.999 61.9746C176.316 64.0444 171.044 67.9759 167.29 75.4535C167.29 75.4535 182.131 90.2094 190.963 85.635C194.281 83.9172 195.33 80.0497 194.782 74.3626C189.318 72.4441 183.901 67.1279 180.999 61.9746Z" fill="#CEDFDB"/>
<path d="M532.916 263.974L526.938 285.025L518.312 286.565L523.676 263.872L532.916 263.974Z" fill="#F4D7C8"/>
<path d="M519.131 275.966C519.131 275.966 514.492 279.595 508.394 280.103C502.297 280.611 496.684 281.624 496.539 284.709C496.539 284.709 504.501 289.839 519.303 288.194L519.062 289.468L528.344 290.703L530.338 280.163L522.595 279.312L523.359 278.366L519.131 275.966Z" fill="#783E3E"/>
<path d="M513.168 287.293C500.062 287.918 497.453 284.279 496.76 283.937C496.63 284.184 496.552 284.44 496.539 284.709C496.539 284.709 504.501 289.839 519.303 288.194L519.062 289.468L528.344 290.703L528.741 288.6C525.419 288.207 522.832 286.831 513.168 287.293Z" fill="#995656"/>
<path d="M519.244 282.324C519.114 282.302 518.996 282.225 518.937 282.111C517.507 279.362 515.525 278.324 515.505 278.314C515.306 278.212 515.236 277.994 515.346 277.826C515.456 277.659 515.707 277.605 515.904 277.706C515.995 277.752 518.141 278.878 519.682 281.839C519.777 282.021 519.687 282.228 519.481 282.303C519.404 282.333 519.322 282.338 519.244 282.324Z" fill="#995656"/>
<path d="M516.98 282.778C516.851 282.756 516.733 282.679 516.673 282.565C515.244 279.815 513.261 278.776 513.241 278.768C513.044 278.666 512.973 278.448 513.083 278.279C513.193 278.11 513.443 278.058 513.64 278.158C513.732 278.205 515.879 279.331 517.419 282.292C517.513 282.472 517.423 282.68 517.217 282.756C517.139 282.786 517.058 282.792 516.98 282.778Z" fill="#995656"/>
<path d="M587.784 265.868L586.272 287.626L578.131 290.753L578.704 267.498L587.784 265.868Z" fill="#F4D7C8"/>
<path d="M576.744 280.206C576.744 280.206 572.946 284.634 567.072 286.273C561.198 287.912 555.905 289.957 556.4 293.01C556.4 293.01 565.266 296.549 579.44 292.164L579.468 293.458L588.823 292.93L588.603 282.222L580.835 282.837L581.389 281.768L576.744 280.206Z" fill="#783E3E"/>
<path d="M573.237 292.428C560.516 295.496 557.208 292.415 556.457 292.212C556.38 292.478 556.356 292.744 556.4 293.01C556.4 293.01 565.266 296.549 579.44 292.164L579.467 293.458L588.822 292.93L588.778 290.795C585.439 291.031 582.617 290.167 573.237 292.428Z" fill="#995656"/>
<path d="M578.169 286.42C578.037 286.423 577.907 286.371 577.824 286.27C575.854 283.843 573.697 283.195 573.674 283.19C573.459 283.127 573.345 282.926 573.418 282.74C573.491 282.555 573.725 282.456 573.94 282.518C574.04 282.547 576.376 283.248 578.499 285.863C578.629 286.023 578.583 286.244 578.397 286.356C578.327 286.398 578.247 286.419 578.169 286.42Z" fill="#995656"/>
<path d="M576.043 287.288C575.911 287.291 575.779 287.237 575.698 287.138C573.728 284.711 571.57 284.064 571.549 284.058C571.333 283.995 571.219 283.794 571.292 283.608C571.365 283.424 571.6 283.325 571.813 283.386C571.912 283.415 574.249 284.116 576.372 286.731C576.502 286.891 576.456 287.112 576.27 287.224C576.201 287.266 576.123 287.287 576.043 287.288Z" fill="#995656"/>
<path d="M594.179 137.997C594.179 137.997 595.247 250.29 589.597 272.538C589.597 272.538 579.718 277.367 573.146 271.498C573.146 271.498 571.859 182.247 571.738 170.051H563.048C563.048 170.051 536.823 264.841 534.358 269.145C534.358 269.145 525.393 270.183 518.83 265.024L545.558 133.392L594.179 137.997Z" fill="#2F8B90"/>
<path d="M580.778 145.322C576.593 146.075 571.774 146.724 566.685 146.967C561.573 147.21 557.28 146.961 553.802 146.526C553.615 147.78 553.453 149.035 553.298 150.292C557.45 150.797 562.386 151.183 567.448 151.089C572.188 151 577.094 150.263 581.418 149.365C581.276 148.01 581.065 146.663 580.778 145.322Z" fill="#995656"/>
<path d="M585.264 144.43C585.54 145.725 585.751 147.028 585.907 148.337C591.109 147.031 594.688 145.754 594.688 145.754L594.943 141.875C594.943 141.875 591.144 143.146 585.264 144.43Z" fill="#995656"/>
<path d="M549.31 145.796C545.327 144.974 543.268 144.058 543.268 144.058L542.25 148.421C542.25 148.421 544.803 149.025 548.794 149.66C548.955 148.37 549.118 147.082 549.31 145.796Z" fill="#995656"/>
<path d="M571.269 272.538C571.269 272.538 579.925 277.872 591.633 273.265L592.142 266.477C592.142 266.477 582.214 269.386 571.014 266.961L571.269 272.538Z" fill="#40A0A0"/>
<path d="M515.922 267.077C515.922 267.077 522.326 274.39 534.435 272.925L536.88 266.533C536.88 266.533 526.905 266.816 517.312 261.656L515.922 267.077Z" fill="#40A0A0"/>
<path d="M585.536 40.026C585.536 40.026 583.355 49.0265 579.72 50.6424C576.085 52.2584 579.477 39.5635 579.477 39.5635L585.536 40.026Z" fill="#783E3E"/>
<path d="M578.171 43.4893L578.13 65.618L567.778 80.7928L560.648 65.5526L561.429 48.8404L578.171 43.4893Z" fill="#EACABB"/>
<path d="M570.745 11.4844C582.038 13.7476 581.812 20.85 581.812 20.85C581.812 20.85 582.561 24.9953 582.408 31.5245C583.436 30.201 585.195 29.6366 587.011 30.3319C590.863 31.8053 588.148 42.9089 582.306 41.9999C582.087 45.0965 580.743 48.8476 580.319 49.6854C578.715 52.8519 571.564 57.7143 565.189 58.5172C558.814 59.3215 550.481 55.3013 549.807 48.4229C548.874 38.896 550.421 15.0858 550.421 15.0858C550.421 15.0858 552.045 7.7362 570.745 11.4844Z" fill="#F4D7C8"/>
<path d="M567.619 32.9387C567.637 34.3598 568.19 35.4957 568.854 35.4783C569.519 35.4594 570.043 34.2928 570.024 32.8732C570.006 31.4522 569.452 30.3162 568.787 30.3337C568.124 30.3511 567.601 31.5177 567.619 32.9387Z" fill="#24313C"/>
<path d="M554.765 32.6736C554.783 34.0946 555.336 35.2306 556.001 35.2131C556.665 35.1942 557.189 34.0277 557.17 32.6081C557.152 31.1871 556.599 30.0511 555.935 30.0686C555.27 30.0875 554.747 31.254 554.765 32.6736Z" fill="#24313C"/>
<path d="M575.469 17.2286C578.397 17.1937 583.085 17.0526 586.011 16.9624C586.002 16.9828 585.988 17.0002 585.98 17.0206C585.507 18.2336 585.588 30.0995 585.588 30.0995C582.645 30.2594 582.816 32.6943 582.816 32.6943L582.472 37.7152L579.546 37.4505L579.271 26.8225C577.279 25.8421 576.61 24.1433 576.61 24.1433C576.61 24.1433 575.938 19.118 575.469 17.2286Z" fill="#783E3E"/>
<path d="M559.846 28.7173C559.715 31.2234 559.326 33.6757 558.848 36.1105C558.354 38.541 557.774 40.954 557.061 43.3394L556.792 42.7576C558.012 43.5488 559.208 44.3837 560.331 45.3364C558.904 44.8811 557.551 44.3081 556.224 43.6914L555.885 43.5343L555.955 43.1096C556.355 40.6587 556.886 38.237 557.507 35.8327C558.14 33.4284 558.866 31.0459 559.846 28.7173Z" fill="#D9BCAF"/>
<path d="M573.843 26.4016C573.843 26.4016 573.058 26.4132 572.14 26.374C571.672 26.3653 571.167 26.3493 570.663 26.3245C570.157 26.3173 569.652 26.2838 569.16 26.2998C568.665 26.2794 568.184 26.3114 567.701 26.3289C567.454 26.3172 567.225 26.3711 566.983 26.3754C566.741 26.3769 566.51 26.4089 566.286 26.4292C566.07 26.4671 565.832 26.4511 565.643 26.4874C565.453 26.5223 565.265 26.5325 565.113 26.5485C564.799 26.5732 564.593 26.5747 564.593 26.5747C564.593 26.5747 564.636 26.3973 564.761 26.1107C564.888 25.8271 565.088 25.4111 565.475 25.0402C565.658 24.8424 565.861 24.6184 566.131 24.4555C566.395 24.2897 566.672 24.0788 567.005 23.9639C567.332 23.8388 567.675 23.689 568.048 23.641C568.416 23.5581 568.796 23.5246 569.175 23.5304C570.713 23.5246 572.091 24.198 572.842 24.9398C573.632 25.6525 573.843 26.4016 573.843 26.4016Z" fill="#783E3E"/>
<path d="M558.475 26.7859C558.475 26.7859 557.738 26.7131 556.932 26.6011C556.09 26.5168 555.224 26.4062 554.522 26.4484C554.158 26.4353 553.81 26.4935 553.418 26.5241C553.034 26.5953 552.617 26.6579 552.217 26.7539C551.811 26.8237 551.456 26.9459 551.168 26.9953C550.882 27.052 550.69 27.0768 550.69 27.0768C550.69 27.0768 550.69 26.9066 550.742 26.623C550.806 26.3495 550.873 25.9219 551.157 25.5248C551.293 25.3212 551.421 25.0725 551.635 24.8732C551.852 24.6768 552.086 24.4572 552.37 24.2798C552.672 24.1285 552.984 23.9365 553.344 23.8507C553.705 23.7547 554.08 23.6747 554.462 23.6805C555.232 23.65 555.961 23.8754 556.542 24.1707C557.124 24.4805 557.557 24.8819 557.847 25.2805C558.449 26.0601 558.475 26.7859 558.475 26.7859Z" fill="#783E3E"/>
<path d="M555.968 47.8733L569.54 46.2573C569.54 46.2573 564.32 55.2592 555.968 47.8733Z" fill="white"/>
<path d="M588.687 7.02216C585.192 3.21864 581.013 4.20334 578.736 5.19385C578.243 4.59896 577.704 3.98516 577.053 3.32918C568.813 -4.98038 559.846 4.71386 554.755 6.09855C549.666 7.48323 546.03 2.63684 546.03 2.63684C543.365 9.79153 549.181 13.4845 549.181 13.4845L545.303 13.7158C555.967 20.1781 567.6 17.4087 567.6 17.4087L563.722 19.717C570.265 21.333 576.324 18.1011 576.324 18.1011L582.643 31.529C587.265 28.108 588.199 31.4883 588.199 31.4883C588.199 31.4883 593.776 12.5609 588.687 7.02216Z" fill="#783E3E"/>
<path d="M482.498 84.969C482.498 84.969 484.141 81.452 487.15 84.5079C490.159 87.5638 489.374 90.7521 489.374 90.7521L482.498 84.969Z" fill="#F4D7C8"/>
<path d="M518.184 101.464C518.184 101.464 503.706 97.1343 494.588 91.5432L494.604 91.488C494.604 91.488 485.152 84.3231 482.791 83.1784C478.165 80.9327 477.878 84.1282 477.878 84.1282C477.878 84.1282 477.93 91.2305 480.279 92.5221C481.363 93.1185 484.013 94.7591 486.554 96.3518C492.604 100.795 513.703 116.004 522.625 118.712C522.625 118.712 533.014 111.384 539.939 95.4457C541.667 91.4647 518.184 101.464 518.184 101.464Z" fill="#F4D7C8"/>
<path d="M490.611 91.9303L431.797 45.5317L431.065 46.0655L489.942 92.6619L490.611 91.9303Z" fill="#273B4F"/>
<path d="M484.085 82.2066C484.085 82.2066 480.926 81.8677 480.486 85.2669C480.047 88.6661 484.202 84.5527 484.202 84.5527C484.202 84.5527 482.28 85.0545 485.838 88.109C489.397 91.1649 489.035 87.357 489.035 87.357L488.49 86.3709" fill="#F4D7C8"/>
<path d="M536.903 69.999C536.903 69.999 525.257 84.7258 518.002 100.725C518.002 100.725 519.911 110.907 527.357 115.452L544.349 93.271L536.903 69.999Z" fill="#FD6A48"/>
<path d="M519.091 101.083C518.52 101.322 518.184 101.464 518.184 101.464C518.184 101.464 517.395 101.226 516.106 100.807C516.075 106.532 517.388 112.082 519.444 117.469C520.614 118 521.689 118.428 522.624 118.712C522.624 118.712 525.092 116.963 528.42 113.337C525.311 109.251 522.206 105.164 519.091 101.083Z" fill="#EACABB"/>
<path d="M516.072 100.088C516.072 100.088 520.548 114.232 527.278 118.057C527.278 118.057 531.205 113.56 533.085 109.816L519.805 95.335C519.805 95.335 516.895 97.8585 516.072 100.088Z" fill="#FFD4D4"/>
<path d="M595.197 138.967C595.197 138.967 568.687 151.114 543.522 142.603C543.522 142.603 538.302 96.9407 536.905 69.999C536.905 69.999 547.622 67.0245 560.849 65.6471L563.124 64.0588L567.451 73.5131L573.561 63.8159C573.561 63.8159 574.503 65.0406 575.355 65.0886C583.384 65.5395 592.942 67.3722 600.671 69.2703C600.671 69.2703 598.436 118.428 595.197 138.967Z" fill="#FD6A48"/>
<path d="M584.285 66.2132L575.616 74.2231L573.559 63.8176L579.763 59.0439L584.285 66.2132Z" fill="#FFD4D4"/>
<path d="M553.685 68.0195L558.461 74.9066L563.123 64.0604L557.685 61.9077L553.685 68.0195Z" fill="#FFD4D4"/>
<path d="M569.168 77.7269C569.168 78.38 568.612 78.9095 567.926 78.9095C567.241 78.9095 566.685 78.38 566.685 77.7269C566.685 77.0739 567.241 76.5444 567.926 76.5444C568.612 76.5444 569.168 77.0739 569.168 77.7269Z" fill="#FFD4D4"/>
<path d="M568.022 93.6347C568.022 94.2877 567.466 94.8172 566.781 94.8172C566.095 94.8172 565.539 94.2877 565.539 93.6347C565.539 92.9816 566.095 92.4521 566.781 92.4521C567.466 92.4521 568.022 92.9816 568.022 93.6347Z" fill="#FFD4D4"/>
<path d="M567.068 109.544C567.068 110.197 566.512 110.726 565.826 110.726C565.14 110.726 564.584 110.197 564.584 109.544C564.584 108.891 565.14 108.361 565.826 108.361C566.512 108.361 567.068 108.891 567.068 109.544Z" fill="#FFD4D4"/>
<path d="M567.259 125.452C567.259 126.105 566.703 126.635 566.017 126.635C565.331 126.635 564.775 126.105 564.775 125.452C564.775 124.799 565.331 124.27 566.017 124.27C566.703 124.27 567.259 124.799 567.259 125.452Z" fill="#FFD4D4"/>
<path d="M567.544 141.361C567.544 142.014 566.988 142.544 566.303 142.544C565.617 142.544 565.061 142.014 565.061 141.361C565.061 140.708 565.617 140.179 566.303 140.179C566.988 140.179 567.544 140.708 567.544 141.361Z" fill="#FFD4D4"/>
<path d="M628.161 115.634C628.161 115.634 626.271 105.811 623.961 102.18C621.652 98.5497 612.393 113.176 612.393 113.176C602.044 127.792 600.86 131.66 596.401 137.335C595.305 136.053 592.495 133.093 590.418 133.8C590.418 133.8 576.255 142.221 589.285 136.434C589.285 136.434 580.538 148.138 591.173 137.199C591.173 137.199 584.281 151.255 592.982 138.679C592.982 138.679 585.596 152.109 593.955 141.377C593.955 141.377 594.12 146.307 598.241 144.694C599.312 144.275 601.06 143.06 603.06 141.498C608.662 137.51 625.611 124.098 628.161 115.634Z" fill="#F4D7C8"/>
<path d="M628.002 116.055C628.051 115.916 628.12 115.77 628.161 115.634C628.161 115.634 626.27 105.811 623.961 102.18C621.652 98.5497 612.393 113.176 612.393 113.176C611.497 114.443 610.696 115.595 609.934 116.703C613.212 117.5 620.108 118.539 628.002 116.055Z" fill="#EACABB"/>
<path d="M607.542 70.9083C607.542 70.9083 620.581 91.3847 626.194 104.644C626.194 104.644 618.009 112.023 610.215 112.907L593.033 90.3622L600.023 68.9956L607.542 70.9083Z" fill="#FD6A48"/>
<path d="M610.406 115.998C610.406 115.998 622.938 118.302 628.352 112.907C628.352 112.907 628.902 105.306 625.488 102.726L607.16 110.725C607.16 110.725 608.307 114.737 610.406 115.998Z" fill="#FFD4D4"/>
</svg>
