<svg width="668" height="424" viewBox="0 0 668 424" fill="none" xmlns="http://www.w3.org/2000/svg">
<path d="M88.7432 216.138C88.7432 219.883 91.9306 222.92 95.8646 222.92H161.376C165.308 222.92 168.497 219.885 168.497 216.138V170.93C168.497 167.185 165.31 164.148 161.376 164.148H95.8646C91.9327 164.148 88.7432 167.183 88.7432 170.93V216.138Z" fill="#587A7B"/>
<path opacity="0.1" d="M95.8646 164.148H111.055C107.123 164.148 103.934 167.183 103.934 170.93V216.138C103.934 219.883 107.121 222.92 111.055 222.92H95.8646C91.9327 222.92 88.7432 219.885 88.7432 216.138V170.93C88.7432 167.183 91.9327 164.148 95.8646 164.148Z" fill="#001627"/>
<path d="M153.688 130.652C153.688 130.652 149.346 135.613 141.532 135.613C133.718 135.613 130.244 128.998 131.982 123.21C131.982 123.21 124.169 128.998 124.169 119.904C124.169 119.904 113.172 122.384 111.145 114.391C109.118 106.398 118.959 101.714 118.959 101.714C118.959 101.714 110.856 100.061 111.434 96.7522C112.013 93.4459 114.908 91.5159 117.223 92.8942C117.223 92.8942 109.698 86.5545 112.881 77.4603C116.064 68.366 124.748 71.3974 128.22 73.0506C128.22 73.0506 125.325 62.0263 135.456 68.6408C135.456 68.6408 136.036 47.9706 154.846 59.5466C154.846 59.5466 160.924 46.0406 171.053 58.4431C171.053 58.4431 177.71 50.1755 177.999 59.5466C177.999 59.5466 186.971 50.7272 195.653 57.8934C204.335 65.0597 199.995 73.6042 199.995 73.6042C199.995 73.6042 204.625 67.8163 209.547 72.226C214.466 76.6357 213.889 82.1488 208.679 85.73C203.469 89.3111 214.177 79.6671 216.783 85.4551C219.387 91.2431 211.573 89.3131 211.573 89.3131C211.573 89.3131 226.624 86.5565 224.597 100.614C222.57 114.67 206.654 109.434 206.654 109.434C206.654 109.434 212.443 110.535 210.996 114.945C209.549 119.354 204.339 114.118 204.339 114.118C204.339 114.118 207.233 123.212 195.946 129.552C184.658 135.892 172.503 128.451 172.503 128.451L153.688 130.652Z" fill="#001627"/>
<path d="M151.316 103.031C151.561 106.455 149.097 109.403 145.817 109.614C142.536 109.825 139.679 107.222 139.434 103.798C139.19 100.374 141.651 97.4267 144.933 97.2156C148.212 97.0045 151.071 99.6076 151.316 103.031Z" fill="#BB969D"/>
<path d="M152.915 111.929L156.738 136.619L139.168 142.347C139.168 142.347 156.291 155.636 178.948 152.316C197.413 149.611 201.349 135.95 201.349 135.95L176.233 134.864L174.558 122.364L152.915 111.929Z" fill="#BB969D"/>
<path opacity="0.1" d="M176.005 132.912L174.338 120.44L151.809 106.685L156.247 132.285C158.575 131.958 172.506 132.552 176.005 132.912Z" fill="#001627"/>
<path d="M168.65 70.8817C168.65 70.8817 187.473 69.388 191.294 85.1366C194.54 98.5131 196.318 116.441 185.382 125.406C174.445 134.368 160.104 128.523 151.41 117.941C142.716 107.358 138.407 78.295 168.65 70.8817Z" fill="#BB969D"/>
<path d="M144.933 97.2184C144.933 97.2184 147.212 97.7701 148.258 102.998C149.304 108.227 152.964 108.476 154.794 99.7618C156.39 92.1574 153.225 83.0811 153.225 83.0811L144.933 97.2184Z" fill="#001627"/>
<path d="M146.813 99.0146C146.813 99.0146 161.066 73.122 189.303 80.0931C189.303 80.0931 182.908 66.125 164.561 68.8895C141.434 72.3751 141.702 91.5456 142.779 98.0187C142.779 98.0187 145.468 96.027 146.813 99.0146Z" fill="#FD6A48"/>
<path d="M182.244 116.691C182.244 116.691 176.493 123.911 169.158 117.355L182.244 116.691Z" fill="white"/>
<path d="M180.559 93.4935C180.559 93.4935 180.722 92.5734 181.701 91.5576C182.177 91.0537 182.855 90.5238 183.71 90.1793C184.549 89.7869 185.555 89.6376 186.536 89.6196C187.021 89.6674 187.523 89.6615 187.979 89.783C188.441 89.8766 188.899 89.9841 189.301 90.1613C190.135 90.4601 190.826 90.8764 191.378 91.2727C191.947 91.6392 192.317 92.0814 192.597 92.3503C192.865 92.6351 193.003 92.8104 193.003 92.8104C193.003 92.8104 192.766 92.7745 192.38 92.6889C191.986 92.6172 191.474 92.4339 190.847 92.3005C190.533 92.2327 190.198 92.1591 189.861 92.0575C189.518 91.9898 189.157 91.92 188.782 91.8464C188.42 91.7348 188.029 91.7647 187.655 91.685C187.276 91.5994 186.896 91.6432 186.515 91.6153C186.137 91.5934 185.762 91.6293 185.394 91.6532C185.039 91.7329 184.66 91.7229 184.323 91.8344C183.623 91.9759 182.987 92.2268 182.426 92.4678C181.32 92.9617 180.559 93.4935 180.559 93.4935Z" fill="#001627"/>
<path d="M159.157 95.0768C159.157 95.0768 159.176 94.1447 159.987 93.0014C160.382 92.4358 160.97 91.8163 161.763 91.3562C162.532 90.8503 163.503 90.5615 164.471 90.4062C164.958 90.3842 165.454 90.3086 165.923 90.3643C166.395 90.3922 166.864 90.436 167.288 90.5536C168.158 90.7308 168.907 91.0455 169.514 91.3622C170.133 91.645 170.568 92.0314 170.886 92.2564C171.195 92.4994 171.358 92.6548 171.358 92.6548C171.358 92.6548 171.118 92.6528 170.723 92.623C170.323 92.607 169.788 92.4974 169.146 92.4536C168.824 92.4297 168.483 92.4039 168.133 92.3501C167.784 92.3322 167.414 92.3122 167.033 92.2923C166.657 92.2326 166.276 92.3162 165.893 92.2903C165.506 92.2584 165.134 92.3561 164.756 92.38C164.379 92.4118 164.013 92.4994 163.653 92.5751C163.312 92.7026 162.938 92.7464 162.622 92.9038C161.951 93.1428 161.361 93.4794 160.845 93.7961C159.826 94.4454 159.157 95.0768 159.157 95.0768Z" fill="#001627"/>
<path d="M178.584 112.21C179.528 110.907 180.605 109.752 181.722 108.642L181.471 109.423C180.59 107.2 179.892 104.93 179.325 102.625C178.779 100.315 178.367 97.9706 178.323 95.5308C179.586 97.654 180.479 99.8747 181.243 102.129C181.983 104.39 182.594 106.682 183.018 109.025L183.119 109.571L182.767 109.806C181.446 110.686 180.08 111.52 178.584 112.21Z" fill="#99747D"/>
<path d="M184.074 98.0185C184.074 98.0185 184.664 98.3432 185.478 98.8132C185.869 99.0423 186.327 99.3072 186.816 99.594C187.295 99.8509 187.805 100.13 188.263 100.219C188.498 100.311 188.68 100.291 188.862 100.301C188.935 100.267 189.008 100.253 189.098 100.253C189.177 100.225 189.242 100.158 189.324 100.12C189.497 100.062 189.608 99.821 189.773 99.6915C189.914 99.5223 190.008 99.3032 190.133 99.1299C190.382 98.7714 190.518 98.3989 190.65 98.1599C190.777 97.913 190.871 97.7695 190.871 97.7695C190.871 97.7695 190.915 97.9249 190.951 98.2018C190.949 98.4766 191.099 98.8869 190.993 99.3809C190.947 99.6299 190.943 99.9067 190.819 100.193C190.654 100.472 190.604 100.817 190.267 101.082C189.993 101.387 189.608 101.616 189.138 101.719C188.705 101.777 188.23 101.779 187.862 101.663C187.082 101.45 186.492 101.064 186.009 100.658C185.519 100.255 185.143 99.823 184.859 99.4307C184.29 98.638 184.074 98.0185 184.074 98.0185Z" fill="#001627"/>
<path d="M163.683 99.5122C163.683 99.5122 164.272 99.8368 165.086 100.307C165.477 100.536 165.935 100.801 166.425 101.088C166.903 101.345 167.414 101.623 167.872 101.713C168.106 101.805 168.288 101.785 168.47 101.795C168.543 101.761 168.616 101.747 168.706 101.747C168.786 101.719 168.851 101.651 168.932 101.613C169.106 101.556 169.217 101.315 169.382 101.185C169.522 101.016 169.616 100.797 169.742 100.624C169.99 100.265 170.126 99.8926 170.258 99.6536C170.386 99.4066 170.48 99.2632 170.48 99.2632C170.48 99.2632 170.524 99.4186 170.559 99.6954C170.557 99.9703 170.708 100.381 170.601 100.875C170.555 101.124 170.551 101.4 170.428 101.687C170.262 101.966 170.212 102.311 169.875 102.575C169.601 102.88 169.217 103.109 168.746 103.213C168.313 103.271 167.838 103.273 167.47 103.157C166.69 102.944 166.1 102.558 165.617 102.151C165.128 101.749 164.751 101.317 164.467 100.924C163.898 100.132 163.683 99.5122 163.683 99.5122Z" fill="#001627"/>
<path d="M145.775 112.708C147.292 112.708 148.521 111.537 148.521 110.093C148.521 108.648 147.292 107.478 145.775 107.478C144.259 107.478 143.029 108.648 143.029 110.093C143.029 111.537 144.259 112.708 145.775 112.708Z" fill="white"/>
<path d="M219.54 203.451C219.454 203.896 220.412 204.84 221.286 206.236C212.924 207.465 213.558 209.532 199.698 213.472C189.458 200.832 194.99 164.075 194.99 164.075L214.708 161.95C214.708 161.95 220.817 196.879 219.54 203.451Z" fill="#BB969D"/>
<g opacity="0.1">
<path d="M216.386 172.237C215.503 166.427 214.708 161.95 214.708 161.95L194.99 164.075C194.99 164.075 193.708 172.621 193.524 182.885C201.252 179.515 208.693 175.703 216.386 172.237Z" fill="#001627"/>
</g>
<path d="M210.13 200.593C215.708 202.748 246.595 206.887 259.629 214.037C262.076 215.38 255.902 212.04 257.491 213.089C256.866 215.081 257.895 219.099 258.236 221.174C248.084 223.329 214.558 226.213 202.116 222.502C200.988 222.166 202.492 213.318 201.298 212.665C206.104 206.206 209.365 207.899 210.13 200.593Z" fill="#BB969D"/>
<path d="M255.262 211.917L269.036 210.499C269.036 210.499 279.922 216.942 279.833 219.007C279.496 226.817 256.004 220.071 256.004 220.071L255.262 211.917Z" fill="#BB969D"/>
<path d="M140.52 140.748C142.325 140.105 144.171 139.758 145.937 139.364C152.761 146.811 161.635 151.822 172.833 149.804C185.731 147.48 190.261 143.829 192.702 134.534C194.101 134.844 201.867 135.372 203.331 135.824C218.251 140.449 218.774 167.338 218.774 167.338L211.186 171.22C218.987 188.054 203.088 193.947 203.088 193.947C203.088 193.947 168.252 195.853 149.871 193.85C149.655 193.826 147.825 193.28 147.62 193.252L147.398 179.501L121.592 172.958C121.874 170.154 123.872 146.673 140.52 140.748Z" fill="#FD6A48"/>
<path d="M202.647 180.804L214.52 223.656C214.52 223.656 180.565 236.499 141.385 234.184L146.691 175.876L202.647 180.804Z" fill="#FD6A48"/>
<path opacity="0.1" d="M150.416 179.332C164.395 191.736 183.219 203.438 208.578 202.442L214.522 223.654C214.522 223.654 180.567 236.496 141.387 234.182L146.415 178.931C147.567 180.102 149.149 178.208 150.416 179.332Z" fill="#001627"/>
<path d="M150.872 205.505C151.134 205.881 151.82 206.847 152.769 208.199C144.485 209.845 146.618 218.222 132.996 222.849C122.073 210.739 125.57 173.756 125.57 173.756L150.416 179.335C150.416 179.331 148.603 202.256 150.872 205.505Z" fill="#BB969D"/>
<g opacity="0.1">
<path d="M150.226 182.038C150.333 180.375 150.414 179.333 150.414 179.333L125.568 173.754C125.568 173.754 125.396 175.571 125.248 178.523C133.448 180.335 141.835 181.194 150.226 182.038Z" fill="#001627"/>
</g>
<path d="M140.249 201.406C145.993 203.121 169.394 210.126 182.997 216.244C185.549 217.391 187.749 218.381 189.424 219.305C188.97 221.339 188.974 223.416 189.489 225.458C179.554 228.392 149.707 227.219 136.989 224.484C135.836 224.237 134.625 223.797 133.379 223.237C137.62 216.425 140.111 208.745 140.249 201.406Z" fill="#BB969D"/>
<path d="M306.401 200.727C306.401 200.727 311.876 211.225 300.317 211.118C288.755 211.01 294.233 231.661 273.544 221.877" stroke="#001627" stroke-width="0.4867" stroke-miterlimit="10"/>
<path d="M272.512 198.913C272.512 201.601 274.8 203.782 277.626 203.782H403.07C405.894 203.782 408.184 201.603 408.184 198.913V115.977C408.184 113.288 405.896 111.107 403.07 111.107H277.626C274.802 111.107 272.512 113.288 272.512 115.977V198.913Z" fill="#08465E"/>
<path d="M275.958 218.144H262.115V221.717H275.958V218.144Z" fill="#08465E"/>
<path d="M262.115 218.29C262.115 216.294 265.215 214.679 269.038 214.679C272.861 214.679 275.959 216.296 275.959 218.29C275.959 220.285 272.859 221.903 269.038 221.903C265.215 221.903 262.115 220.285 262.115 218.29Z" fill="#08465E"/>
<path d="M355.377 149.756H325.32V216.149H355.377V149.756Z" fill="#083644"/>
<path d="M375.996 216.149H304.698V221.003H375.996V216.149Z" fill="#08465E"/>
<path d="M251.554 216.149H164.569V221.003H251.554V216.149Z" fill="#08465E"/>
<path opacity="0.1" d="M310.633 423.285C482.192 423.285 621.267 411.897 621.267 397.849C621.267 383.8 482.192 372.412 310.633 372.412C139.075 372.412 0 383.8 0 397.849C0 411.897 139.075 423.285 310.633 423.285Z" fill="#FD6A48"/>
<path d="M453.788 234.449H66.5149V393.128H453.788V234.449Z" fill="#FFA48F"/>
<path opacity="0.2" d="M158.91 234.449H66.5149V393.128H158.91V234.449Z" fill="#FD6A48"/>
<path opacity="0.2" d="M158.91 234.449H66.5149V393.128H158.91H453.786V234.449H158.91Z" fill="#FD6A48"/>
<path d="M468.1 219.841H50.2957V236.777H468.1V219.841Z" fill="#FFA48F"/>
<path opacity="0.2" d="M158.91 219.841H50.2957V236.777H158.91V219.841Z" fill="#FD6A48"/>
<path d="M592.952 360.43L592.714 390.288L581.851 395.186L580.677 363.352L592.952 360.43Z" fill="#FFC1AC"/>
<path d="M579.067 380.874C579.067 380.874 574.246 387.215 566.355 389.904C558.464 392.595 551.399 395.794 552.334 399.928C552.334 399.928 564.753 404.089 583.758 397.013L583.903 398.779L596.646 397.343L595.444 382.722L584.877 384.156L585.545 382.652L579.067 380.874Z" fill="#001627"/>
<path d="M575.303 397.849C558.171 403.013 553.388 399.056 552.344 398.832C552.263 399.203 552.252 399.567 552.334 399.928C552.334 399.928 564.753 404.089 583.758 397.012L583.903 398.779L596.646 397.343L596.405 394.427C591.863 395.006 587.933 394.04 575.303 397.849Z" fill="#00060A"/>
<path d="M539.473 358.054L536.288 387.758L524.988 391.66L526.964 359.862L539.473 358.054Z" fill="#FFC1AC"/>
<path d="M523.63 377.162C523.63 377.162 518.205 383.044 510.082 385.016C501.961 386.987 494.611 389.539 495.132 393.739C495.132 393.739 507.085 398.996 526.705 393.654L526.676 395.426L539.505 395.14L539.751 380.474L529.089 380.956L529.903 379.518L523.63 377.162Z" fill="#001627"/>
<path d="M518.205 393.725C500.639 397.332 496.27 392.962 495.251 392.648C495.134 393.008 495.086 393.373 495.132 393.737C495.132 393.737 507.085 398.993 526.705 393.652L526.676 395.424L539.505 395.137L539.553 392.212C534.974 392.379 531.158 391.064 518.205 393.725Z" fill="#00060A"/>
<path d="M590.934 185.141C590.934 185.141 602.895 347.153 597.043 377.997C597.043 377.997 584.877 382.736 575.398 375.215C575.398 375.215 563.23 251.466 562.042 234.803L551.512 233.895C551.512 233.895 543.805 368.582 540.797 374.653C540.797 374.653 529.139 379.387 519.734 372.837L521.627 182.359L590.934 185.141Z" fill="#08465E"/>
<path d="M573.232 196.178C567.574 197.528 561.043 198.781 554.105 199.5C547.137 200.223 541.247 200.209 536.458 199.88C536.307 201.607 536.192 203.338 536.085 205.067C541.803 205.439 548.582 205.591 555.496 205.075C561.971 204.593 568.614 203.211 574.449 201.653C574.138 199.813 573.736 197.988 573.232 196.178Z" fill="#001627"/>
<path d="M578.919 196.789C579.297 198.561 579.586 200.346 579.799 202.138C586.923 200.35 591.823 198.601 591.823 198.601L592.172 193.289C592.172 193.289 586.971 195.03 578.919 196.789Z" fill="#001627"/>
<path d="M530.254 199.227C524.741 198.408 520.692 196.96 520.692 196.96L520.824 203.353C520.824 203.353 524.367 203.985 529.876 204.548C529.985 202.774 530.1 200.999 530.254 199.227Z" fill="#001627"/>
<path d="M569.204 58.564L569.149 88.8643L554.973 109.646L545.21 88.7746L546.279 65.8915L569.204 58.564Z" fill="#E0A190"/>
<path d="M559.037 14.7389C574.501 17.838 574.192 27.5637 574.192 27.5637C574.192 27.5637 575.217 33.2401 575.005 42.181C576.413 40.3685 578.822 39.5958 581.309 40.5478C586.584 42.5655 582.865 57.7703 574.865 56.5255C574.566 60.7659 572.726 65.9026 572.144 67.0499C569.948 71.3859 560.156 78.0443 551.426 79.1437C542.696 80.2431 531.285 74.74 530.363 65.321C529.085 52.2752 531.591 15.8543 531.591 15.8543C531.591 15.8543 533.429 9.6062 559.037 14.7389Z" fill="#FFC1AC"/>
<path d="M565.506 22.6038C569.515 22.556 575.934 22.3627 579.941 22.2393C579.929 22.2671 579.912 22.2911 579.899 22.3189C579.251 23.9801 579.362 40.2286 579.362 40.2286C575.332 40.4457 575.566 43.7819 575.566 43.7819L575.095 50.6574L571.088 50.2949L570.712 35.7412C567.984 34.4008 567.068 32.0725 567.068 32.0725C567.068 32.0725 566.148 25.191 565.506 22.6038Z" fill="#001627"/>
<path d="M570.965 34.5042C570.965 34.5042 571.985 51.9897 567.905 59.9547C563.824 67.9196 564.029 59.7595 560.764 58.7895C557.5 57.8175 548.525 60.9266 544.445 61.7034C540.364 62.4802 536.489 60.7314 537.099 66.7544C537.712 72.7775 532.195 73.4048 530.363 65.3204C530.363 65.3204 525.879 78.9937 536.692 81.5192C547.505 84.0447 572.596 82.4911 575.045 68.308C577.494 54.1268 574.229 46.5483 575.861 39.3601C577.492 32.1739 570.965 34.5042 570.965 34.5042Z" fill="#001627"/>
<path d="M567.495 23.6256C567.495 23.6256 556.682 27.5115 546.89 21.8769L555.254 20.3233C555.254 20.3233 535.057 22.2653 523.43 12.7468L530.365 10.8048C530.365 10.8048 524.449 8.4725 521.797 2.25629C521.797 2.25629 532.405 4.7818 546.072 1.28431C559.74 -2.21318 571.777 1.67271 573.818 10.0261C573.818 10.0261 580.753 7.30534 585.241 13.5235C589.73 19.7397 581.307 40.5474 581.307 40.5474C581.307 40.5474 578.101 39.9459 576.673 41.3042L567.495 23.6256Z" fill="#001627"/>
<path d="M554.756 44.1148C554.781 46.0607 555.538 47.6163 556.448 47.5924C557.357 47.5665 558.075 45.9691 558.05 44.0252C558.025 42.0793 557.265 40.5237 556.355 40.5476C555.448 40.5735 554.73 42.1709 554.756 44.1148Z" fill="#24313C"/>
<path d="M537.154 43.7535C537.179 45.6994 537.936 47.255 538.846 47.2311C539.756 47.2052 540.473 45.6078 540.448 43.6639C540.423 41.718 539.664 40.1624 538.754 40.1863C537.846 40.2102 537.129 41.8076 537.154 43.7535Z" fill="#24313C"/>
<path d="M544.112 38.3369C543.985 41.7806 543.458 45.1387 542.805 48.4728C542.13 51.801 541.305 55.0994 540.283 58.3558L539.923 57.5771C541.586 58.6765 543.228 59.8099 544.777 61.0925C542.839 60.4472 540.99 59.6545 539.162 58.8259L538.714 58.6227L538.8 58.0451C539.3 54.6791 540 51.3569 540.847 48.0626C541.72 44.7762 542.715 41.5137 544.112 38.3369Z" fill="#E0A190"/>
<path d="M563.278 35.1651C563.278 35.1651 562.203 35.1811 560.946 35.1293C560.306 35.1174 559.614 35.0955 558.924 35.0616C558.232 35.0517 557.539 35.0058 556.866 35.0258C556.188 34.9979 555.53 35.0417 554.869 35.0656C554.53 35.0496 554.216 35.1234 553.886 35.1293C553.553 35.1313 553.237 35.1751 552.93 35.203C552.635 35.2528 552.309 35.2309 552.049 35.2807C551.79 35.3285 551.533 35.3424 551.324 35.3643C550.895 35.3982 550.613 35.4002 550.613 35.4002C550.613 35.4002 550.671 35.1592 550.843 34.7648C551.016 34.3744 551.29 33.8068 551.819 33.2989C552.07 33.028 552.348 32.7213 552.719 32.4982C553.08 32.2692 553.459 31.9823 553.915 31.827C554.363 31.6537 554.833 31.4506 555.343 31.3849C555.847 31.2713 556.368 31.2275 556.887 31.2334C558.993 31.2255 560.88 32.1477 561.909 33.1635C562.99 34.1394 563.278 35.1651 563.278 35.1651Z" fill="#001627"/>
<path d="M542.234 35.6912C542.234 35.6912 541.226 35.5916 540.121 35.4383C538.969 35.3227 537.783 35.1713 536.821 35.2291C536.323 35.2112 535.846 35.2889 535.309 35.3327C534.784 35.4303 534.213 35.5159 533.667 35.6473C533.111 35.743 532.626 35.9103 532.23 35.978C531.839 36.0557 531.576 36.0895 531.576 36.0895C531.576 36.0895 531.576 35.8565 531.647 35.4681C531.735 35.0937 531.827 34.5081 532.216 33.9643C532.402 33.6855 532.578 33.3449 532.87 33.072C533.167 32.8032 533.487 32.5024 533.876 32.2574C534.29 32.0503 534.717 31.7874 535.211 31.6718C535.704 31.5404 536.219 31.4309 536.742 31.4389C537.796 31.397 538.793 31.7057 539.59 32.11C540.387 32.5343 540.979 33.084 541.376 33.6297C542.198 34.6953 542.234 35.6912 542.234 35.6912Z" fill="#001627"/>
<path d="M539.396 65.5295L557.928 62.9502C557.928 62.9502 551.051 75.4145 539.396 65.5295Z" fill="white"/>
<path d="M591.127 190.635C591.127 190.635 554.526 203.581 520.801 193.871C520.801 193.871 514.61 131.757 512.697 94.8662C512.697 94.8662 527.372 90.7932 545.485 88.907L548.601 86.732L554.526 99.6783L562.892 86.3994C562.892 86.3994 564.182 88.0765 565.349 88.1422C576.344 88.7596 589.433 91.2692 600.015 93.8684C600.015 93.8684 595.563 162.51 591.127 190.635Z" fill="#B8C7DD"/>
<path d="M577.009 88.0602L565.709 100.648L562.892 86.4011L571.387 79.8643L577.009 88.0602Z" fill="#C5D5E8"/>
<path d="M534.918 90.3007L542.215 101.584L548.601 86.7315L541.155 83.7837L534.918 90.3007Z" fill="#C5D5E8"/>
<path d="M461.246 98.5066L462.196 99.871C440.555 69.0668 456.093 98.4389 456.093 98.4389C432.991 69.5388 451.866 99.3213 451.866 99.3213C431.692 78.9976 450.312 102.725 450.312 102.725C450.312 102.725 443.379 95.8497 442.912 96.8715C441.911 99.0664 456.576 114.703 456.576 114.703C456.576 114.703 461.57 122.758 464.839 100.317C468.11 77.8763 461.246 98.5066 461.246 98.5066Z" fill="#FFC1AC"/>
<path d="M512.697 94.8657C512.697 94.8657 496.749 115.032 486.815 136.941C486.815 136.941 489.429 150.883 499.625 157.107L522.892 126.734L512.697 94.8657Z" fill="#B8C7DD"/>
<path d="M499.625 157.108C499.625 157.108 494.919 165.075 487.599 162.751C480.279 160.426 453.089 112.957 453.089 112.957L466.684 101.339L502.935 145.49L502.659 150.87" fill="#B8C7DD"/>
<path d="M547.468 147.888L656.211 131.066L664.713 215.474L562.924 231.607L560.309 231.109L547.468 147.888Z" fill="#FFC2C2"/>
<path d="M551.389 148.892L660.693 132.032L667.327 215.972L562.923 231.607L551.389 148.892Z" fill="#FA321A"/>
<path d="M615.083 215.352L614.852 213.731C617.661 236.072 620.276 223 620.276 223C625.243 232.338 624.59 222.377 624.59 222.377C629.166 231.465 627.598 221.132 627.598 221.132C627.598 221.132 629.587 224.472 630.474 223.747C632.381 222.188 626.707 202.72 626.707 202.72C626.707 202.72 625.906 193.397 612.679 212.229C599.451 231.061 615.083 215.352 615.083 215.352Z" fill="#FFC1AC"/>
<path d="M609.427 96.1108C609.427 96.1108 620.757 145.821 628.424 206.901C628.424 206.901 621.8 212.544 611.692 210.221L589.558 122.75L599.131 93.4917L609.427 96.1108Z" fill="#B8C7DD"/>
<path d="M582.014 142.653L552.964 181.536" stroke="#FD6A48" stroke-miterlimit="10" stroke-linecap="round"/>
<path d="M623.915 135.119L665.738 161.404" stroke="#FD6A48" stroke-miterlimit="10" stroke-linecap="round"/>
</svg>
